<?xml version="1.0" encoding="UTF-8"?>
<!-- Generator: visioncortex VTracer 0.6.3 -->
<svg version="1.1" xmlns="http://www.w3.org/2000/svg" width="8000" height="2727">
<path d="M0 0 C1.84 -0 3.68 -0 5.53 -0 C10.6 -0.01 15.67 -0 20.74 0 C26.26 0 31.77 0 37.29 0 C46.96 -0 56.63 -0 66.29 0 C80.67 0.01 95.05 0.01 109.42 0.01 C133.61 0.01 157.79 0.01 181.97 0.02 C205.92 0.02 229.87 0.03 253.82 0.03 C254.56 0.03 255.3 0.03 256.07 0.03 C262.86 0.03 269.66 0.03 276.45 0.03 C293.34 0.03 310.22 0.03 327.11 0.03 C327.88 0.03 328.65 0.03 329.44 0.03 C366.85 0.03 404.25 0.04 441.66 0.05 C454.64 0.05 467.62 0.05 480.6 0.05 C481.81 0.05 481.81 0.05 483.04 0.05 C520.47 0.06 557.9 0.06 595.32 0.07 C597.75 0.07 600.18 0.07 602.61 0.07 C618.71 0.07 634.81 0.07 650.92 0.07 C682.96 0.07 715 0.08 747.03 0.08 C748.56 0.08 750.09 0.08 751.61 0.08 C832.81 0.09 914.01 0.1 1056.12 0.12 C1055.65 1.7 1055.18 3.28 1054.71 4.86 C1054.45 5.74 1054.19 6.62 1053.92 7.53 C1052.77 11.24 1051.39 14.84 1049.96 18.45 C1049.66 19.22 1049.36 19.99 1049.05 20.78 C1048.05 23.32 1047.05 25.84 1046.06 28.37 C1045.34 30.19 1044.63 32 1043.92 33.81 C1042.42 37.64 1040.92 41.46 1039.41 45.28 C1037.17 51 1034.93 56.71 1032.69 62.43 C1032.33 63.37 1031.96 64.3 1031.59 65.26 C1030.85 67.16 1030.11 69.05 1029.36 70.95 C1027.47 75.78 1025.58 80.61 1023.69 85.45 C1019.54 96.05 1015.39 106.65 1011.24 117.25 C1009.37 122.04 1007.49 126.83 1005.62 131.62 C1004.87 133.54 1004.12 135.46 1003.37 137.37 C1001.87 141.21 1000.37 145.04 998.87 148.87 C998.31 150.3 998.31 150.3 997.74 151.75 C996.99 153.67 996.24 155.58 995.49 157.5 C993.62 162.28 991.75 167.07 989.88 171.85 C986.47 180.57 983.06 189.28 979.64 198 C978.09 201.97 976.54 205.93 974.99 209.9 C974.27 211.73 973.55 213.55 972.84 215.38 C967.82 228.2 962.82 241.04 957.83 253.87 C957.17 255.55 956.52 257.23 955.87 258.91 C954.29 262.98 952.7 267.05 951.12 271.12 C950.47 271.12 949.82 271.12 949.16 271.12 C878.65 271.15 808.15 271.18 737.65 271.24 C736.07 271.24 736.07 271.24 734.46 271.24 C711.58 271.26 688.69 271.28 665.81 271.3 C654.59 271.31 643.37 271.32 632.14 271.33 C630.47 271.33 630.47 271.33 628.76 271.33 C592.56 271.36 556.35 271.38 520.15 271.4 C482.95 271.41 445.75 271.43 408.55 271.47 C403.3 271.48 398.05 271.49 392.8 271.49 C391.76 271.49 390.73 271.49 389.66 271.49 C373.01 271.51 356.36 271.52 339.71 271.51 C322.98 271.51 306.25 271.53 289.51 271.56 C279.57 271.57 269.62 271.58 259.68 271.57 C253.04 271.56 246.39 271.57 239.75 271.59 C235.97 271.6 232.18 271.6 228.4 271.59 C224.31 271.58 220.24 271.6 216.15 271.62 C214.98 271.61 213.81 271.6 212.61 271.59 C203.22 271.68 194.33 273.51 187.06 279.81 C186.24 280.5 185.43 281.2 184.6 281.91 C183.37 283.01 183.37 283.01 182.12 284.12 C180.83 285.25 180.83 285.25 179.52 286.4 C177.02 288.61 174.56 290.85 172.12 293.12 C171.49 293.7 170.86 294.27 170.22 294.86 C160.14 304.44 153.29 316.47 148.36 329.34 C148.02 330.22 147.68 331.09 147.33 331.99 C146.21 334.87 145.1 337.74 143.99 340.62 C143.2 342.67 142.41 344.71 141.61 346.76 C139.53 352.13 137.45 357.51 135.37 362.89 C132.17 371.18 128.95 379.47 125.74 387.75 C124.95 389.79 124.16 391.82 123.38 393.86 C117.47 409.12 111.51 424.35 105.49 439.56 C104.94 440.97 104.94 440.97 104.37 442.4 C103.34 445.02 102.3 447.63 101.27 450.24 C100.96 451.02 100.66 451.79 100.34 452.59 C98.24 457.89 98.24 457.89 97.12 460.12 C264.43 460.12 431.74 460.12 604.12 460.12 C597.21 478.54 597.21 478.54 594.01 486.79 C593.65 487.73 593.28 488.67 592.91 489.63 C591.73 492.67 590.55 495.71 589.37 498.75 C588.96 499.81 588.55 500.87 588.12 501.96 C579.91 523.13 571.64 544.28 563.35 565.42 C559.98 574.03 556.61 582.64 553.25 591.25 C551.37 596.04 549.49 600.83 547.62 605.62 C546.87 607.54 546.12 609.46 545.37 611.37 C540.87 622.87 540.87 622.87 539.74 625.75 C538.99 627.67 538.24 629.58 537.49 631.5 C535.63 636.27 533.76 641.05 531.89 645.82 C528.43 654.67 524.97 663.51 521.51 672.36 C519.91 676.46 518.31 680.57 516.71 684.67 C515.96 686.59 515.21 688.51 514.46 690.44 C513.93 691.79 513.93 691.79 513.39 693.17 C513.09 693.95 512.79 694.73 512.48 695.54 C507.81 707.46 502.97 719.27 498.12 731.12 C330.15 731.12 162.18 731.12 -10.88 731.12 C-11.21 732.77 -11.54 734.42 -11.88 736.12 C-12.38 737.61 -12.92 739.08 -13.48 740.54 C-13.81 741.39 -14.14 742.24 -14.48 743.11 C-14.84 744.03 -15.2 744.95 -15.57 745.89 C-15.95 746.86 -16.33 747.83 -16.71 748.82 C-17.95 752.01 -19.2 755.19 -20.44 758.37 C-21.31 760.6 -22.18 762.82 -23.04 765.05 C-25.24 770.68 -27.44 776.32 -29.64 781.95 C-31.48 786.65 -33.31 791.35 -35.14 796.04 C-38.07 803.58 -41.02 811.11 -43.96 818.64 C-47.27 827.11 -50.57 835.58 -53.88 844.05 C-55.54 848.33 -57.21 852.6 -58.88 856.87 C-59.55 858.58 -60.21 860.29 -60.88 862 C-77.88 905.56 -77.88 905.56 -94.88 949.12 C38.77 949.45 172.42 949.78 310.12 950.12 C309.46 961.01 308.8 971.9 308.12 983.12 C307.95 988.89 307.82 994.6 307.82 1000.36 C307.81 1001.78 307.81 1003.2 307.8 1004.62 C307.79 1008.29 307.79 1011.96 307.8 1015.63 C307.81 1017.92 307.81 1020.21 307.81 1022.5 C307.85 1045.16 308.31 1067.62 311.12 1090.12 C311.29 1091.57 311.47 1093.01 311.64 1094.46 C320.59 1168 342.98 1241.3 381.12 1305.12 C381.6 1305.94 382.09 1306.75 382.59 1307.59 C396.56 1330.83 411.81 1353.71 429.61 1374.22 C431.99 1376.97 434.28 1379.78 436.56 1382.62 C441.28 1388.42 446.32 1393.87 451.43 1399.32 C453.22 1401.23 454.99 1403.16 456.76 1405.08 C464.05 1412.98 471.52 1420.5 479.52 1427.67 C481.17 1429.17 482.8 1430.69 484.43 1432.21 C491.12 1438.47 497.97 1444.39 505.12 1450.12 C506.31 1451.11 507.5 1452.09 508.69 1453.08 C569.8 1503.55 641.36 1540.08 1037.12 1620.12 C1037.81 1620.14 1038.5 1620.15 1039.21 1620.16 C1141.85 1621.86 1244.62 1610.24 1436.12 1570.12 C1437.09 1569.88 1438.07 1569.64 1439.07 1569.38 C1537.68 1544.64 1634 1511.68 1786.12 1448.12 C1787.3 1447.6 1787.3 1447.6 1788.5 1447.07 C1808.96 1437.97 1829.33 1428.75 1849.45 1418.9 C1852.29 1417.52 1855.14 1416.16 1857.99 1414.81 C1872.55 1407.89 1887.01 1400.77 1901.43 1393.56 C1903.93 1392.31 1906.44 1391.06 1908.94 1389.81 C1924.11 1382.27 1939.11 1374.51 1953.94 1366.32 C1958.43 1363.86 1962.99 1361.52 1967.56 1359.19 C1976.34 1354.64 1984.98 1349.88 1993.57 1344.98 C2000.02 1341.3 2006.52 1337.71 2013.06 1334.19 C2023.88 1328.32 2034.5 1322.13 2045.11 1315.89 C2048.04 1314.17 2050.98 1312.46 2053.92 1310.76 C2084.55 1292.99 2114.85 1274.65 2144.73 1255.64 C2147.28 1254.02 2149.82 1252.41 2152.37 1250.8 C2204.89 1217.52 2256.5 1182.67 2306.85 1146.21 C2310.02 1143.91 2313.2 1141.64 2316.39 1139.37 C2324.89 1133.33 2333.28 1127.13 2341.67 1120.93 C2344.05 1119.17 2346.43 1117.42 2348.82 1115.68 C2358.12 1108.86 2367.33 1101.95 2376.49 1094.95 C2381.74 1090.93 2387.01 1086.95 2392.31 1083 C2404.62 1073.8 2416.69 1064.27 2428.77 1054.76 C2431.02 1052.99 2433.27 1051.22 2435.53 1049.46 C2442.47 1044.03 2449.34 1038.53 2456.16 1032.96 C2460.42 1029.48 2464.72 1026.07 2469.06 1022.69 C2476.56 1016.83 2483.88 1010.77 2491.21 1004.7 C2493.76 1002.6 2496.31 1000.52 2498.87 998.44 C2503.39 994.75 2507.84 990.98 2512.28 987.21 C2515.7 984.31 2519.14 981.45 2522.62 978.62 C2526.59 975.39 2530.52 972.12 2534.43 968.81 C2535.23 968.13 2535.23 968.13 2536.05 967.44 C2539.04 964.91 2542 962.36 2544.95 959.79 C2545.58 959.24 2546.22 958.69 2546.87 958.13 C2548.1 957.06 2549.32 955.99 2550.54 954.92 C2553.06 952.73 2554.92 951.19 2558.12 950.12 C2556.81 952.93 2555.36 955.24 2553.4 957.63 C2552.6 958.61 2552.6 958.61 2551.78 959.6 C2550.93 960.63 2550.93 960.63 2550.06 961.69 C2549.18 962.76 2549.18 962.76 2548.28 963.85 C2547.1 965.29 2545.92 966.72 2544.74 968.15 C2542.65 970.7 2540.57 973.25 2538.49 975.81 C2533.9 981.42 2529.22 986.95 2524.52 992.47 C2523.14 994.09 2521.77 995.72 2520.4 997.35 C2514.68 1004.12 2508.93 1010.86 2503.16 1017.58 C2501.13 1019.95 2499.1 1022.32 2497.08 1024.7 C2491.37 1031.41 2485.56 1037.98 2479.58 1044.45 C2476.95 1047.31 2474.4 1050.21 2471.85 1053.14 C2469.08 1056.31 2466.25 1059.44 2463.43 1062.56 C2461.94 1064.22 2460.45 1065.87 2458.97 1067.53 C2448.79 1078.88 2438.39 1090.02 2427.97 1101.15 C2426.11 1103.13 2424.26 1105.12 2422.41 1107.12 C2413.93 1116.22 2405.25 1125.08 2396.39 1133.82 C2392.06 1138.1 2387.91 1142.44 2383.95 1147.06 C2380.21 1151.28 2376.17 1155.21 2372.18 1159.19 C2371.33 1160.04 2370.47 1160.9 2369.59 1161.79 C2365.89 1165.49 2362.19 1169.13 2358.21 1172.53 C2352.71 1177.25 2347.7 1182.47 2342.62 1187.62 C2336.83 1193.5 2331.06 1199.32 2324.78 1204.69 C2322.61 1206.56 2320.61 1208.57 2318.62 1210.62 C2315.97 1213.36 2313.24 1215.92 2310.36 1218.41 C2306.04 1222.16 2301.89 1226.06 2297.74 1230 C2291.61 1235.8 2285.43 1241.51 2279.12 1247.12 C2277.41 1248.66 2275.7 1250.21 2273.99 1251.75 C2268.67 1256.53 2263.3 1261.26 2257.86 1265.91 C2256.66 1266.94 2255.45 1267.97 2254.24 1269 C2253.33 1269.78 2253.33 1269.78 2252.4 1270.57 C2248.86 1273.6 2245.38 1276.67 2241.93 1279.81 C2237.8 1283.56 2233.51 1287.09 2229.17 1290.61 C2225.6 1293.55 2222.11 1296.58 2218.62 1299.62 C2212.55 1304.91 2206.38 1310.06 2200.12 1315.12 C2198.39 1316.54 2196.66 1317.96 2194.93 1319.37 C2192.99 1320.96 2191.06 1322.54 2189.12 1324.12 C2188.22 1324.86 2188.22 1324.86 2187.3 1325.61 C2178.54 1332.76 2169.73 1339.83 2160.82 1346.79 C2158.57 1348.55 2156.32 1350.32 2154.08 1352.09 C2135.81 1366.47 2117.34 1380.51 2098.61 1394.29 C2096.17 1396.08 2093.74 1397.88 2091.31 1399.68 C2073.11 1413.12 2054.74 1426.27 2036.12 1439.12 C2035.55 1439.52 2034.98 1439.91 2034.39 1440.32 C2022.9 1448.27 2011.31 1456.06 1999.68 1463.81 C1998.76 1464.42 1997.84 1465.04 1996.89 1465.67 C1983.24 1474.76 1969.55 1483.76 1955.67 1492.51 C1953.24 1494.05 1950.81 1495.6 1948.38 1497.15 C1901.9 1526.8 1853.96 1554.31 1805.4 1580.36 C1803.16 1581.56 1800.93 1582.77 1798.7 1583.97 C1779.53 1594.34 1760.12 1604.23 1740.64 1613.99 C1738.78 1614.92 1736.93 1615.85 1735.08 1616.78 C1718.55 1625.07 1701.9 1633.04 1685.09 1640.76 C1681.85 1642.25 1678.61 1643.75 1675.38 1645.26 C1635.23 1663.94 1594.37 1681.02 1553.12 1697.12 C1551.81 1697.63 1551.81 1697.63 1550.47 1698.16 C1461.2 1733.01 1369.82 1761.62 1204.12 1801.12 C1203.07 1801.34 1202.01 1801.56 1200.93 1801.79 C1119.57 1818.67 1037.16 1830.14 954.31 1836.37 C952.8 1836.49 952.8 1836.49 951.25 1836.61 C943.55 1837.19 935.84 1837.68 928.12 1838.12 C927.39 1838.17 926.67 1838.21 925.92 1838.25 C895.53 1840.02 865.18 1840.47 834.74 1840.44 C829.85 1840.43 824.95 1840.44 820.06 1840.46 C774.82 1840.63 729.67 1839.09 684.62 1834.81 C683.49 1834.71 682.37 1834.6 681.21 1834.5 C588.46 1825.91 496.14 1808.94 398.12 1777.12 C397.39 1776.88 396.65 1776.64 395.9 1776.4 C360.89 1764.93 326.47 1751.79 293.12 1736.12 C292.05 1735.62 290.99 1735.12 289.89 1734.61 C282.6 1731.18 275.35 1727.67 268.12 1724.12 C267.05 1723.6 265.98 1723.08 264.88 1722.55 C249.3 1714.94 234.11 1706.83 219.12 1698.12 C217.61 1697.25 216.09 1696.38 214.58 1695.51 C178.1 1674.38 143.52 1650.06 111.12 1623.12 C110.53 1622.63 109.94 1622.15 109.34 1621.64 C102.99 1616.35 96.74 1610.97 90.63 1605.4 C89.13 1604.04 87.61 1602.68 86.08 1601.34 C77.98 1594.22 70.41 1586.57 62.8 1578.93 C60.43 1576.56 58.06 1574.19 55.69 1571.83 C54.16 1570.3 52.63 1568.77 51.11 1567.24 C50.41 1566.55 49.71 1565.85 48.99 1565.13 C44.5 1560.62 40.26 1555.96 36.12 1551.12 C35.17 1550.03 34.22 1548.93 33.27 1547.84 C5.66 1515.87 -18.86 1481.69 -39.42 1444.75 C-40.88 1442.13 -42.36 1439.51 -43.84 1436.9 C-76.09 1379.44 -96.28 1315.77 -107.88 1251.12 C-108.08 1249.99 -108.29 1248.86 -108.5 1247.69 C-110.95 1233.7 -112.57 1219.62 -114.07 1205.5 C-114.15 1204.7 -114.24 1203.9 -114.33 1203.08 C-115.99 1187.28 -116.95 1171.51 -117.44 1155.62 C-117.49 1154.35 -117.53 1153.08 -117.57 1151.77 C-119.3 1097.72 -114.42 1043.5 -105.32 990.25 C-105.18 989.42 -105.03 988.59 -104.89 987.73 C-102.83 975.8 -100.38 963.98 -97.88 952.12 C-279.05 951.79 -460.22 951.46 -646.88 951.12 C-646.88 950.79 -646.88 950.46 -646.88 950.12 C-646.11 950.03 -645.34 949.94 -644.55 949.85 C-599.25 944.43 -560.09 927.39 -524.88 898.12 C-523.97 897.37 -523.97 897.37 -523.05 896.6 C-510.74 886.32 -498.96 875.44 -489.01 862.81 C-486.76 859.97 -484.38 857.24 -482.01 854.5 C-475.9 847.17 -470.84 839.25 -465.88 831.12 C-465.48 830.48 -465.09 829.83 -464.68 829.17 C-459.86 821.23 -455.84 813.05 -452.16 804.52 C-451.72 803.52 -451.29 802.52 -450.84 801.48 C-446.71 791.86 -442.89 782.14 -439.15 772.37 C-437.12 767.05 -435.07 761.74 -433.02 756.43 C-432.59 755.33 -432.17 754.24 -431.74 753.11 C-427.15 741.2 -422.49 729.32 -417.82 717.44 C-416.98 715.3 -416.14 713.16 -415.3 711.02 C-414.05 707.83 -412.8 704.65 -411.55 701.46 C-407.27 690.58 -403.01 679.7 -398.76 668.81 C-398.01 666.91 -397.27 665.02 -396.53 663.12 C-395.05 659.34 -393.58 655.57 -392.1 651.79 C-388.74 643.2 -385.37 634.6 -382.01 626 C-380.13 621.21 -378.26 616.42 -376.38 611.62 C-375.63 609.71 -374.88 607.79 -374.13 605.87 C-373.76 604.92 -373.39 603.98 -373.01 603 C-279.63 364.37 -279.63 364.37 -278.51 361.5 C-277.76 359.58 -277.01 357.67 -276.26 355.75 C-274.38 350.95 -272.5 346.16 -270.63 341.36 C-267.27 332.78 -263.91 324.21 -260.56 315.63 C-251.92 293.54 -243.27 271.46 -234.61 249.39 C-229.4 236.1 -224.19 222.81 -218.99 209.51 C-217.51 205.74 -216.03 201.96 -214.55 198.18 C-211.1 189.39 -207.67 180.59 -204.28 171.78 C-202.69 167.62 -201.08 163.46 -199.47 159.31 C-198.72 157.35 -197.97 155.39 -197.22 153.43 C-191.31 137.9 -184.81 122.69 -174.88 109.25 C-174.37 108.55 -173.86 107.84 -173.34 107.12 C-158.04 86.14 -139.47 66 -118.88 50.12 C-117.79 49.23 -116.71 48.32 -115.62 47.42 C-81.7 19.28 -44.54 -0.07 0 0 Z " fill="#FEFEFE" transform="translate(2424.8804864883423,886.8769521713257)"/>
<path d="M0 0 C2.4 -0 4.81 -0.01 7.21 -0.01 C12.42 -0.02 17.62 -0.02 22.83 -0.01 C30.57 -0 38.31 -0.01 46.05 -0.01 C59.88 -0.02 73.71 -0.02 87.54 -0.02 C99.64 -0.01 111.74 -0.01 123.84 -0.01 C124.65 -0.01 125.45 -0.01 126.28 -0.01 C129.54 -0.01 132.81 -0.02 136.07 -0.02 C166.66 -0.02 197.24 -0.02 227.83 -0.01 C254.99 0 282.15 0 309.31 -0.01 C339.84 -0.02 370.38 -0.02 400.91 -0.02 C404.17 -0.01 407.42 -0.01 410.68 -0.01 C411.48 -0.01 412.28 -0.01 413.11 -0.01 C425.2 -0.01 437.3 -0.01 449.39 -0.02 C463.14 -0.02 476.9 -0.02 490.65 -0.01 C498.34 -0.01 506.03 -0.01 513.72 -0.01 C519.47 -0.02 525.22 -0.01 530.97 -0 C533.29 -0 535.61 -0 537.93 -0.01 C564.46 -0.06 587.52 2.93 608.2 21.25 C609.08 22.01 609.08 22.01 609.98 22.79 C624.54 36.25 634.73 55.79 640.78 74.42 C641.11 75.43 641.44 76.43 641.78 77.47 C646.97 93.49 651.62 109.69 656.36 125.85 C657.79 130.7 659.22 135.56 660.65 140.41 C662.42 146.43 664.19 152.44 665.96 158.45 C671.29 176.57 676.65 194.68 682.02 212.79 C684.26 220.34 686.49 227.88 688.73 235.43 C689.22 237.08 689.71 238.73 690.2 240.39 C695.16 257.11 700.1 273.85 705.05 290.58 C715.21 324.93 725.38 359.27 735.56 393.61 C738.99 405.19 742.42 416.77 745.85 428.35 C747.46 433.78 749.07 439.21 750.68 444.64 C751.95 448.92 753.21 453.2 754.48 457.48 C761.37 480.74 768.28 504 775.2 527.25 C777.24 525.21 777.81 524.06 778.82 521.42 C779.13 520.62 779.44 519.81 779.76 518.99 C780.09 518.1 780.43 517.22 780.77 516.31 C781.13 515.38 781.49 514.45 781.86 513.49 C782.65 511.45 783.43 509.41 784.21 507.37 C786.34 501.78 788.49 496.21 790.64 490.63 C791.1 489.46 791.55 488.29 792.01 487.08 C797.03 474.05 802.14 461.06 807.26 448.07 C809.12 443.34 810.98 438.61 812.84 433.88 C813.29 432.72 813.75 431.57 814.21 430.38 C818.64 419.14 823.04 407.88 827.45 396.63 C827.81 395.7 828.17 394.77 828.55 393.81 C830.37 389.15 832.19 384.5 834.01 379.84 C837.36 371.27 840.71 362.71 844.07 354.14 C845.94 349.34 847.82 344.55 849.7 339.75 C850.45 337.84 851.2 335.92 851.95 334 C852.32 333.06 852.69 332.11 853.07 331.13 C874.45 276.5 874.45 276.5 875.57 273.63 C876.32 271.71 877.07 269.8 877.82 267.88 C879.7 263.08 881.57 258.29 883.45 253.49 C886.81 244.91 890.16 236.34 893.52 227.76 C902.16 205.67 910.8 183.6 919.46 161.52 C925.42 146.33 931.37 131.14 937.32 115.94 C937.69 115 938.06 114.06 938.43 113.1 C942.91 101.65 947.39 90.21 951.86 78.76 C953.73 73.97 955.61 69.17 957.49 64.38 C957.85 63.45 958.22 62.51 958.6 61.55 C959.34 59.66 960.08 57.78 960.82 55.89 C963.15 49.94 965.46 43.99 967.77 38.03 C969.32 34.02 970.89 30.01 972.45 26.01 C973.19 24.1 973.93 22.2 974.66 20.3 C975.67 17.67 976.69 15.05 977.72 12.43 C978.01 11.66 978.31 10.89 978.61 10.09 C978.89 9.37 979.18 8.66 979.47 7.93 C979.71 7.31 979.94 6.69 980.19 6.06 C981.58 3.56 982.96 2.07 985.2 0.25 C988.34 -0.24 988.34 -0.24 992.14 -0.24 C992.84 -0.24 993.54 -0.25 994.26 -0.25 C996.63 -0.26 998.99 -0.24 1001.36 -0.23 C1003.06 -0.23 1004.77 -0.23 1006.48 -0.24 C1011.18 -0.25 1015.88 -0.23 1020.58 -0.21 C1025.64 -0.19 1030.71 -0.2 1035.77 -0.2 C1044.55 -0.2 1053.33 -0.19 1062.1 -0.17 C1074.8 -0.14 1087.49 -0.13 1100.18 -0.12 C1120.77 -0.11 1141.36 -0.09 1161.95 -0.05 C1181.95 -0.01 1201.96 0.02 1221.96 0.03 C1223.2 0.04 1224.43 0.04 1225.7 0.04 C1231.88 0.04 1238.06 0.05 1244.25 0.05 C1295.56 0.09 1346.88 0.16 1398.2 0.25 C1397.37 4.76 1395.92 8.85 1394.23 13.09 C1393.93 13.87 1393.62 14.65 1393.31 15.45 C1392.3 18.03 1391.28 20.61 1390.26 23.19 C1389.54 25.03 1388.82 26.86 1388.1 28.7 C1386.57 32.58 1385.05 36.46 1383.52 40.33 C1381.26 46.08 1379.01 51.83 1376.76 57.58 C1376.4 58.51 1376.03 59.45 1375.66 60.41 C1374.92 62.3 1374.18 64.19 1373.44 66.08 C1371.55 70.92 1369.66 75.75 1367.77 80.58 C1363.62 91.18 1359.47 101.78 1355.32 112.38 C1353.44 117.17 1351.57 121.96 1349.7 126.75 C1348.95 128.67 1348.2 130.59 1347.45 132.5 C1345.95 136.34 1344.45 140.17 1342.95 144 C1342.57 144.95 1342.2 145.9 1341.82 146.88 C1341.07 148.8 1340.32 150.71 1339.57 152.63 C1337.7 157.42 1335.82 162.21 1333.95 166.99 C1330.56 175.66 1327.16 184.34 1323.77 193.01 C1316.24 212.25 1308.71 231.5 1301.2 250.75 C1293.3 270.98 1285.39 291.2 1277.48 311.42 C1274.09 320.08 1270.7 328.73 1267.32 337.38 C1265.44 342.17 1263.57 346.96 1261.7 351.75 C1260.95 353.67 1260.2 355.59 1259.45 357.5 C1245.95 392 1232.45 426.5 1218.95 461 C1218.39 462.43 1218.39 462.43 1217.82 463.88 C1217.07 465.8 1216.32 467.71 1215.57 469.63 C1213.7 474.42 1211.82 479.21 1209.95 483.99 C1206.56 492.66 1203.16 501.34 1199.77 510.01 C1192.24 529.25 1184.71 548.5 1177.2 567.75 C1169.3 587.98 1161.39 608.2 1153.48 628.42 C1150.09 637.08 1146.7 645.73 1143.32 654.38 C1141.44 659.17 1139.57 663.96 1137.7 668.75 C1136.95 670.67 1136.2 672.59 1135.45 674.5 C1130.95 686 1130.95 686 1129.82 688.88 C1129.07 690.8 1128.32 692.71 1127.57 694.63 C1125.7 699.41 1123.83 704.19 1121.96 708.98 C1117.75 719.72 1113.55 730.46 1109.35 741.2 C1107.44 746.08 1105.53 750.97 1103.62 755.85 C1103.06 757.26 1103.06 757.26 1102.5 758.7 C1101.77 760.56 1101.05 762.41 1100.32 764.27 C1098.32 769.37 1096.33 774.47 1094.35 779.57 C1081.55 812.56 1066.92 841.68 1043.2 868.25 C1042.72 868.79 1042.24 869.32 1041.75 869.87 C1033.08 879.56 1024.22 888.86 1014.03 896.98 C1011.11 899.32 1008.28 901.75 1005.45 904.19 C998.72 909.79 991.6 914.61 984.2 919.25 C983.54 919.67 982.88 920.08 982.21 920.5 C943.32 944.71 905.24 951.59 860.11 951.52 C855.79 951.51 851.46 951.52 847.14 951.52 C838.69 951.53 830.25 951.53 821.8 951.52 C814.94 951.52 808.07 951.52 801.2 951.52 C799.73 951.52 799.73 951.52 798.23 951.52 C796.23 951.52 794.24 951.52 792.25 951.52 C773.6 951.53 754.95 951.52 736.3 951.51 C720.33 951.5 704.36 951.51 688.38 951.51 C669.79 951.53 651.2 951.53 632.61 951.52 C630.63 951.52 628.64 951.52 626.66 951.52 C625.68 951.52 624.7 951.52 623.7 951.52 C616.84 951.52 609.99 951.52 603.13 951.53 C594.77 951.53 586.41 951.53 578.05 951.52 C573.79 951.51 569.53 951.51 565.27 951.52 C561.37 951.53 557.46 951.52 553.55 951.51 C552.14 951.51 550.74 951.51 549.34 951.52 C519.23 951.61 490.92 942.68 468.65 921.88 C459.69 912.51 454.51 901.58 450.09 889.57 C449.51 888.01 449.51 888.01 448.92 886.42 C444.35 874.06 439.96 861.64 435.58 849.22 C433.64 843.75 431.71 838.28 429.77 832.81 C429.03 830.71 428.29 828.62 427.54 826.52 C422.74 812.96 417.91 799.42 413.07 785.88 C412.24 783.57 411.42 781.26 410.59 778.94 C408.13 772.05 405.66 765.15 403.2 758.25 C399.9 749.05 396.61 739.84 393.32 730.63 C392.71 728.91 392.71 728.91 392.08 727.16 C385.17 707.82 378.3 688.46 371.44 669.1 C364.38 649.18 357.27 629.27 350.13 609.38 C344.82 594.58 339.52 579.77 334.26 564.94 C328.34 548.27 322.4 531.6 316.45 514.94 C315.82 513.19 315.82 513.19 315.18 511.4 C313.05 505.43 310.91 499.46 308.78 493.49 C306.19 486.24 303.6 478.98 301 471.72 C300.58 470.53 300.15 469.33 299.71 468.1 C297.6 462.2 295.5 456.29 293.39 450.39 C289.84 440.46 286.3 430.53 282.72 420.61 C281.29 416.64 279.87 412.68 278.44 408.72 C277.78 406.88 277.12 405.05 276.46 403.22 C275.56 400.74 274.67 398.25 273.77 395.77 C273.51 395.04 273.24 394.32 272.97 393.57 C271.93 390.65 271.2 388.37 271.2 385.25 C304.47 368.41 340.48 357.66 377.27 351.76 C378.04 351.63 378.82 351.51 379.62 351.38 C383.43 350.76 387.25 350.16 391.07 349.61 C400.45 348.18 410.8 346.36 417.28 338.83 C420.18 334.63 422.35 331.02 422.51 325.88 C422.56 324.72 422.56 324.72 422.62 323.54 C422.01 320.28 420.79 319.33 418.2 317.25 C415.49 316.43 412.99 315.83 410.23 315.32 C409.45 315.17 408.67 315.01 407.86 314.85 C406.19 314.52 404.52 314.2 402.85 313.88 C398.51 313.04 394.17 312.15 389.84 311.26 C388.99 311.09 388.14 310.92 387.27 310.74 C356.54 304.41 321.06 292.32 302.62 265.24 C280.79 231.82 284.82 187.92 292.54 150.57 C293.62 145.43 294.72 140.31 295.91 135.2 C297.46 128.46 298.79 122.19 298.2 115.25 C296.04 112.21 294.4 111.47 290.77 110.81 C283.23 110.31 277.92 112.38 272.2 117.25 C266.8 123.14 263.32 130.57 259.51 137.54 C242.79 167.94 222.94 197.05 199.52 222.71 C197.89 224.49 196.29 226.28 194.69 228.08 C190.41 232.87 186.14 237.41 181.22 241.54 C179.82 242.73 178.45 243.96 177.11 245.22 C132.45 287.29 69.68 305.24 10.48 314.3 C8.93 314.55 8.93 314.55 7.34 314.8 C5.46 315.09 3.57 315.36 1.67 315.61 C-6.32 316.84 -13.77 320.22 -18.8 326.75 C-21.52 331.14 -22.88 334.71 -22.62 339.94 C-21.78 343.35 -21.45 344.17 -18.8 346.25 C-16.67 347.01 -16.67 347.01 -14.25 347.39 C-13.32 347.57 -12.39 347.75 -11.43 347.94 C-10.42 348.13 -9.41 348.31 -8.37 348.5 C59.49 361.89 59.49 361.89 84.2 384.25 C85.39 385.16 85.39 385.16 86.61 386.08 C102.97 399.82 110.88 422.03 112.88 442.7 C114.83 467.72 111.52 492.28 106.88 516.82 C106.75 517.55 106.61 518.29 106.47 519.05 C103.22 536.47 97.2 552.67 90.62 569.07 C89.14 572.77 87.67 576.47 86.19 580.18 C85.41 582.15 84.62 584.13 83.83 586.11 C79.3 597.48 74.84 608.86 70.38 620.25 C69.54 622.41 68.69 624.57 67.85 626.73 C66.14 631.07 64.44 635.42 62.73 639.77 C58.6 650.33 54.46 660.89 50.32 671.44 C49.71 673.01 49.71 673.01 49.08 674.6 C42 692.67 34.9 710.74 27.8 728.8 C18.75 751.85 9.7 774.9 0.66 797.96 C-1.82 804.3 -4.31 810.64 -6.8 816.98 C-7.21 818.04 -7.62 819.09 -8.05 820.18 C-10.13 825.49 -12.22 830.8 -14.3 836.11 C-18.08 845.75 -21.86 855.38 -25.63 865.02 C-34.23 886.96 -42.83 908.9 -51.49 930.82 C-51.86 931.75 -52.23 932.68 -52.61 933.65 C-53.64 936.25 -54.66 938.85 -55.69 941.45 C-55.99 942.21 -56.3 942.98 -56.61 943.77 C-58.69 949.02 -58.69 949.02 -59.8 951.25 C-199.39 951.25 -338.98 951.25 -482.8 951.25 C-482.01 946.48 -480.94 942.54 -479.2 938.11 C-478.93 937.4 -478.66 936.7 -478.38 935.97 C-477.46 933.61 -476.54 931.24 -475.62 928.88 C-474.96 927.17 -474.29 925.46 -473.63 923.76 C-465.88 903.78 -458.02 883.84 -450.17 863.89 C-445.61 852.31 -441.07 840.72 -436.55 829.13 C-435.28 825.86 -434 822.58 -432.73 819.31 C-432.25 818.09 -432.25 818.09 -431.77 816.85 C-427.79 806.65 -423.8 796.45 -419.8 786.25 C-414.13 771.76 -408.46 757.26 -402.8 742.75 C-397.19 728.35 -391.56 713.96 -385.93 699.57 C-385.37 698.13 -385.37 698.13 -384.8 696.67 C-381.75 688.89 -378.7 681.11 -375.66 673.33 C-373 666.53 -370.34 659.74 -367.68 652.94 C-367.12 651.51 -367.12 651.51 -366.55 650.04 C-361.29 636.62 -356.04 623.19 -350.8 609.75 C-345.19 595.35 -339.56 580.96 -333.93 566.57 C-333.37 565.13 -333.37 565.13 -332.8 563.67 C-329.75 555.89 -326.7 548.11 -323.66 540.33 C-321 533.53 -318.34 526.74 -315.68 519.94 C-315.31 518.99 -314.93 518.03 -314.55 517.04 C-308.96 502.78 -303.39 488.51 -297.82 474.24 C-292.11 459.6 -286.39 444.96 -280.66 430.33 C-275.37 416.81 -270.08 403.28 -264.8 389.75 C-259.19 375.35 -253.56 360.96 -247.93 346.57 C-247.37 345.13 -247.37 345.13 -246.8 343.67 C-243.75 335.89 -240.7 328.11 -237.66 320.33 C-235 313.53 -232.34 306.74 -229.68 299.94 C-229.31 298.99 -228.93 298.03 -228.55 297.04 C-223.29 283.62 -218.04 270.19 -212.8 256.75 C-207.19 242.35 -201.56 227.96 -195.93 213.57 C-195.37 212.13 -195.37 212.13 -194.8 210.67 C-191.75 202.89 -188.7 195.11 -185.66 187.33 C-183.38 181.5 -181.09 175.67 -178.81 169.83 C-178.06 167.91 -177.3 165.98 -176.55 164.06 C-172.19 152.92 -167.84 141.77 -163.5 130.63 C-160.86 123.84 -158.21 117.06 -155.55 110.28 C-153.77 105.73 -152 101.17 -150.24 96.61 C-149.18 93.87 -148.12 91.14 -147.04 88.4 C-146.34 86.6 -145.65 84.79 -144.96 82.97 C-140.01 70.4 -133.25 59.97 -123.8 50.25 C-123 49.35 -123 49.35 -122.17 48.43 C-112.73 38.23 -99.76 31.11 -87.8 24.25 C-87.09 23.84 -86.37 23.43 -85.63 23 C-57.13 6.67 -32.98 -0.07 0 0 Z " fill="#FEFEFE" transform="translate(4818.804580688477,886.7460327148438)"/>
<path d="M0 0 C1.97 -0 3.93 -0.01 5.9 -0.01 C11.31 -0.02 16.72 -0.02 22.13 -0.02 C28.02 -0.02 33.9 -0.03 39.78 -0.04 C50.1 -0.05 60.41 -0.06 70.73 -0.06 C81.8 -0.07 92.86 -0.07 103.93 -0.08 C104.98 -0.08 104.98 -0.08 106.05 -0.08 C108.9 -0.09 111.75 -0.09 114.6 -0.09 C151.51 -0.13 188.43 -0.15 225.35 -0.17 C233.33 -0.17 241.32 -0.17 249.31 -0.18 C308.75 -0.21 368.19 -0.24 427.63 -0.25 C441.4 -0.26 455.18 -0.26 468.95 -0.26 C470.68 -0.26 472.41 -0.27 474.14 -0.27 C529.68 -0.28 585.22 -0.32 640.75 -0.37 C680.66 -0.41 720.57 -0.44 760.49 -0.45 C761.31 -0.45 762.13 -0.45 762.97 -0.45 C781 -0.46 799.02 -0.46 817.04 -0.47 C824.3 -0.47 831.55 -0.47 838.8 -0.47 C839.59 -0.47 840.39 -0.47 841.2 -0.47 C866.76 -0.47 892.31 -0.5 917.86 -0.53 C943.6 -0.56 969.35 -0.57 995.09 -0.56 C998.65 -0.56 1002.21 -0.56 1005.77 -0.56 C1006.81 -0.56 1006.81 -0.56 1007.88 -0.56 C1018.91 -0.55 1029.95 -0.57 1040.98 -0.59 C1051.84 -0.62 1062.7 -0.62 1073.56 -0.6 C1079.36 -0.59 1085.16 -0.59 1090.97 -0.62 C1096.26 -0.64 1101.54 -0.63 1106.83 -0.61 C1108.73 -0.6 1110.62 -0.61 1112.51 -0.63 C1125.37 -0.73 1135.94 1.33 1147.88 6.14 C1149.31 6.71 1149.31 6.71 1150.77 7.29 C1152.78 8.11 1154.73 9 1156.69 9.95 C1157.38 10.29 1158.07 10.62 1158.79 10.96 C1186.87 24.89 1205.37 49.51 1215.63 78.58 C1219.55 91.19 1221.37 103.4 1221.21 116.57 C1221.19 118.64 1221.19 120.71 1221.2 122.78 C1221.17 135.8 1220.38 148.8 1215.75 161.08 C1215.41 162.02 1215.07 162.95 1214.72 163.92 C1209.48 178.21 1203.83 192.35 1198.26 206.51 C1194.33 216.5 1190.46 226.51 1186.58 236.52 C1180.05 253.4 1173.49 270.26 1166.91 287.12 C1161.37 301.28 1155.87 315.46 1150.38 329.64 C1144.24 345.48 1138.09 361.3 1131.91 377.12 C1126.37 391.28 1120.87 405.46 1115.38 419.64 C1109.56 434.65 1103.73 449.65 1097.88 464.64 C1092.08 479.46 1086.32 494.3 1080.56 509.14 C1079.97 510.67 1079.97 510.67 1079.36 512.24 C1076.53 519.54 1073.7 526.84 1070.88 534.14 C1067.65 542.47 1064.42 550.81 1061.19 559.14 C1060.79 560.16 1060.4 561.19 1059.99 562.24 C1054.31 576.87 1048.62 591.5 1042.91 606.12 C1037.37 620.29 1031.87 634.46 1026.38 648.64 C1020.24 664.48 1014.09 680.3 1007.91 696.12 C1002.37 710.28 996.87 724.46 991.38 738.64 C985.24 754.48 979.09 770.3 972.91 786.12 C967.37 800.28 961.87 814.46 956.38 828.64 C950.56 843.65 944.73 858.65 938.88 873.64 C932.75 889.32 926.65 905.01 920.56 920.7 C919.94 922.31 919.94 922.31 919.31 923.94 C918.12 926.99 916.94 930.04 915.76 933.08 C915.41 933.98 915.06 934.88 914.7 935.81 C914.37 936.66 914.05 937.51 913.71 938.38 C913.42 939.11 913.14 939.84 912.85 940.59 C911.51 944.1 910.19 947.62 908.88 951.14 C783.15 951.14 657.42 951.14 527.88 951.14 C531.25 939.89 531.25 939.89 532.96 935.05 C533.53 933.43 533.53 933.43 534.11 931.77 C534.51 930.64 534.91 929.51 535.32 928.35 C535.95 926.57 535.95 926.57 536.59 924.76 C537.69 921.65 538.79 918.53 539.89 915.42 C541.02 912.23 542.14 909.04 543.27 905.85 C545.47 899.61 547.67 893.38 549.88 887.14 C537.01 886.81 524.14 886.48 510.88 886.14 C512.67 879.56 514.41 873.27 516.77 866.93 C517.03 866.2 517.3 865.48 517.57 864.73 C518.13 863.19 518.69 861.66 519.26 860.13 C520.73 856.11 522.19 852.09 523.64 848.07 C524.21 846.5 524.77 844.94 525.34 843.38 C525.73 842.29 525.73 842.29 526.14 841.17 C526.78 839.39 527.43 837.61 528.08 835.82 C543.23 794.04 548.42 743.01 530.28 701.39 C514.18 667.33 482.47 645.7 447.95 632.92 C417.48 622.06 385.22 615.43 352.82 614.52 C348.08 614.35 348.08 614.35 345.88 612.14 C346.52 612.1 347.16 612.06 347.82 612.02 C408.04 608.16 467.84 594.08 522.88 569.14 C523.73 568.76 524.59 568.38 525.48 567.98 C562.44 551.47 599.16 527.03 624.55 495.03 C626.68 492.39 628.87 489.84 631.11 487.3 C647.21 468.95 660.52 448.27 670.91 426.18 C671.56 424.81 672.21 423.44 672.88 422.07 C682.42 402.27 689.52 381.37 696.89 360.69 C697.13 360.04 697.36 359.38 697.61 358.7 C698.71 355.6 699.8 352.51 700.89 349.41 C701.27 348.33 701.65 347.24 702.05 346.13 C702.38 345.19 702.71 344.24 703.05 343.27 C703.88 341.14 703.88 341.14 704.88 340.14 C707.83 339.98 710.77 339.88 713.72 339.82 C715.05 339.79 715.05 339.79 716.41 339.76 C719.25 339.69 722.09 339.64 724.94 339.58 C726.86 339.53 728.78 339.49 730.71 339.45 C735.43 339.34 740.15 339.24 744.88 339.14 C745.12 338.44 745.37 337.73 745.62 337.01 C747.94 330.37 750.27 323.74 752.59 317.1 C753.79 313.69 754.99 310.28 756.18 306.87 C757.33 303.58 758.49 300.28 759.64 296.99 C760.3 295.12 760.95 293.26 761.6 291.4 C762 290.26 762.4 289.12 762.81 287.94 C763.16 286.94 763.51 285.94 763.88 284.91 C764.82 282.3 765.84 279.72 766.88 277.14 C554.69 276.81 342.5 276.48 123.88 276.14 C122.39 281.09 122.39 281.09 120.88 286.14 C120.21 288.11 119.52 290.07 118.81 292.02 C118.24 293.57 118.24 293.57 117.66 295.15 C117.27 296.23 116.87 297.31 116.46 298.42 C116.05 299.56 115.63 300.69 115.2 301.86 C114.33 304.24 113.46 306.62 112.59 309 C111.24 312.66 109.91 316.31 108.57 319.97 C107.72 322.29 106.87 324.6 106.02 326.92 C105.62 328.02 105.22 329.11 104.81 330.24 C104.44 331.25 104.07 332.26 103.69 333.3 C103.36 334.19 103.03 335.08 102.7 335.99 C101.88 338.14 101.88 338.14 100.88 340.14 C114.08 340.14 127.28 340.14 140.88 340.14 C137.49 349.89 134.08 359.62 130.54 369.31 C113.05 417.31 93.81 473.25 115.84 523.33 C120.31 532.92 125.64 541.36 132.88 549.14 C133.75 550.1 134.62 551.06 135.51 552.05 C175.95 595.41 245.54 608.57 301.88 612.14 C299.3 614.72 298.16 614.44 294.57 614.6 C293.45 614.65 292.33 614.71 291.17 614.77 C289.94 614.83 288.71 614.89 287.44 614.95 C231.82 618.31 176.14 632.03 125.88 656.14 C124.54 656.78 124.54 656.78 123.18 657.42 C99.02 668.99 76.55 683.1 55.88 700.14 C55.28 700.63 54.69 701.11 54.08 701.61 C39.81 713.47 26.15 726.37 14.88 741.14 C13.85 742.45 12.83 743.75 11.8 745.06 C5.19 753.54 -1.04 762.18 -6.88 771.22 C-8.18 773.23 -9.51 775.23 -10.84 777.22 C-17.47 787.25 -23.53 797.5 -29.12 808.14 C-29.48 808.8 -29.84 809.47 -30.21 810.15 C-38.43 825.61 -43.76 842.35 -49.54 858.82 C-51.65 864.83 -53.8 870.82 -55.99 876.8 C-56.29 877.62 -56.59 878.44 -56.9 879.29 C-59.01 885.02 -59.01 885.02 -60.12 886.14 C-63.08 886.3 -66.01 886.4 -68.97 886.46 C-69.86 886.48 -70.75 886.5 -71.66 886.52 C-74.5 886.58 -77.34 886.64 -80.19 886.7 C-82.11 886.75 -84.03 886.79 -85.95 886.83 C-90.68 886.94 -95.4 887.04 -100.12 887.14 C-100.32 887.68 -100.52 888.21 -100.72 888.77 C-102.81 894.45 -104.91 900.13 -107 905.8 C-107.78 907.91 -108.56 910.02 -109.33 912.13 C-110.46 915.19 -111.59 918.26 -112.72 921.32 C-113.06 922.23 -113.39 923.15 -113.74 924.09 C-117.09 933.15 -120.62 942.13 -124.12 951.14 C-249.52 951.14 -374.92 951.14 -504.12 951.14 C-503 944.39 -503 944.39 -501.66 941.01 C-501.21 939.87 -501.21 939.87 -500.75 938.7 C-500.42 937.88 -500.1 937.06 -499.76 936.21 C-499.41 935.34 -499.07 934.46 -498.71 933.55 C-497.96 931.65 -497.2 929.74 -496.44 927.83 C-494.81 923.71 -493.18 919.59 -491.56 915.46 C-490.7 913.29 -489.85 911.12 -488.99 908.96 C-484.51 897.6 -480.09 886.21 -475.69 874.83 C-474.9 872.78 -474.1 870.74 -473.31 868.7 C-471.72 864.58 -470.12 860.46 -468.53 856.35 C-464.5 845.94 -460.47 835.54 -456.44 825.14 C-456.04 824.12 -455.64 823.09 -455.24 822.04 C-449.56 807.4 -443.87 792.78 -438.15 778.16 C-432.62 763.99 -427.12 749.82 -421.62 735.64 C-415.49 719.8 -409.34 703.98 -403.16 688.16 C-397.62 674 -392.12 659.82 -386.62 645.64 C-380.81 630.63 -374.98 615.63 -369.12 600.64 C-363.33 585.81 -357.56 570.98 -351.81 556.14 C-351.42 555.12 -351.02 554.1 -350.61 553.04 C-347.78 545.74 -344.95 538.44 -342.12 531.14 C-338.9 522.81 -335.67 514.47 -332.44 506.14 C-332.04 505.12 -331.64 504.09 -331.24 503.04 C-325.56 488.4 -319.87 473.78 -314.15 459.16 C-308.62 444.99 -303.12 430.82 -297.62 416.64 C-291.49 400.8 -285.34 384.98 -279.16 369.16 C-273.62 355 -268.12 340.82 -262.62 326.64 C-256.81 311.63 -250.98 296.63 -245.12 281.64 C-239.33 266.81 -233.56 251.98 -227.81 237.14 C-227.42 236.12 -227.02 235.1 -226.62 234.06 C-222.52 223.49 -218.43 212.92 -214.34 202.35 C-209.29 189.27 -204.23 176.2 -199.12 163.14 C-198.68 161.99 -198.68 161.99 -198.22 160.82 C-186.43 130.68 -171.78 104.61 -149.61 80.84 C-147.65 78.71 -145.76 76.56 -143.87 74.38 C-133.97 63.02 -123.09 52.32 -111.12 43.14 C-110.04 42.27 -108.96 41.39 -107.87 40.51 C-75.36 14.27 -41.99 -0.02 0 0 Z M37.88 86.14 C34.59 90.21 32.06 94.84 29.36 99.31 C21.55 112.27 13.3 124.09 2.88 135.14 C1.83 136.28 1.83 136.28 0.77 137.44 C-18.49 157.76 -45.05 165.86 -71.73 171.06 C-81.89 172.62 -81.89 172.62 -90.12 178.14 C-91.02 181.78 -91.02 181.78 -91.12 185.14 C-88.26 187.05 -86.82 187.57 -83.55 188.22 C-82.64 188.41 -81.73 188.59 -80.8 188.79 C-79.83 188.99 -78.87 189.19 -77.87 189.39 C-63.02 192.63 -48.05 196.51 -38.75 209.51 C-28.09 227.15 -32.25 248.94 -36.64 267.97 C-37.12 271.08 -36.97 273.13 -36.12 276.14 C-33.05 277.13 -31.41 277.23 -28.3 276.23 C-23.83 273.29 -21.99 269.57 -19.44 264.95 C-18.39 263.13 -17.33 261.31 -16.27 259.5 C-15.75 258.59 -15.22 257.69 -14.68 256.76 C-7.92 245.37 0.05 234.99 8.88 225.14 C9.44 224.49 10.01 223.84 10.59 223.17 C29.62 202.63 56.82 194.41 83.38 189.22 C85.21 188.86 87.04 188.5 88.88 188.14 C89.74 187.97 90.6 187.81 91.48 187.64 C92.68 187.39 92.68 187.39 93.9 187.14 C94.6 187.01 95.3 186.87 96.02 186.72 C99.26 185.71 100.89 183.8 102.88 181.14 C104.02 178.61 104.02 178.61 103.88 176.14 C101.57 173.06 99.21 172.49 95.54 171.71 C94.48 171.47 93.42 171.24 92.33 171 C91.21 170.76 90.09 170.51 88.94 170.26 C73.57 166.74 59.61 162.84 50.09 149.25 C41.02 133.47 43.94 110.97 48.41 94.12 C49.12 91.08 49.05 88.24 48.88 85.14 C47.89 84.15 47.89 84.15 46.88 83.14 C42.37 83.14 41.35 83.41 37.88 86.14 Z " fill="#FEFEFE" transform="translate(6779.124557495117,886.8601922988892)"/>
<path d="M0 0 C-1.3 4.15 -2.86 7.96 -4.82 11.84 C-5.36 12.9 -5.89 13.96 -6.44 15.06 C-7 16.15 -7.55 17.25 -8.12 18.38 C-8.69 19.49 -9.25 20.61 -9.83 21.76 C-11.22 24.51 -12.61 27.26 -14 30 C-11.35 28.75 -9.08 27.41 -6.79 25.57 C-5.91 24.87 -5.91 24.87 -5.01 24.16 C-4.41 23.67 -3.81 23.19 -3.19 22.69 C1.45 18.97 6.14 15.42 11 12 C11.66 12.33 12.32 12.66 13 13 C12.62 13.68 12.23 14.35 11.84 15.05 C10.1 18.11 8.36 21.18 6.62 24.25 C5.72 25.85 5.72 25.85 4.8 27.47 C4.22 28.5 3.64 29.52 3.04 30.58 C2.5 31.52 1.97 32.46 1.42 33.43 C0.22 35.6 -0.92 37.78 -2 40 C0.97 39.5 0.97 39.5 4 39 C2.65 42.02 1.13 44.03 -1.19 46.38 C-6.12 51.83 -8.94 58.38 -12 65 C-11.67 65.33 -11.34 65.66 -11 66 C-10.49 65.48 -9.97 64.96 -9.45 64.42 C-1.51 56.79 7.5 51.46 17 46 C17.63 45.64 18.25 45.27 18.89 44.89 C27.12 40.12 35.69 36.28 44.44 32.56 C45.46 32.12 46.48 31.69 47.53 31.24 C53.1 28.92 57.97 27.4 64 27 C59.79 32.97 55.05 38.34 50.07 43.68 C47.98 45.81 47.98 45.81 47 48 C47.93 47.44 48.87 46.89 49.83 46.31 C81.13 28 81.13 28 96 28 C94.27 32.21 91.32 35.35 88.38 38.75 C87.86 39.35 87.34 39.95 86.81 40.57 C85.55 42.05 84.27 43.53 83 45 C83.74 45.08 84.47 45.16 85.23 45.24 C88.57 45.61 91.91 45.99 95.25 46.38 C96.41 46.5 97.57 46.63 98.76 46.76 C99.88 46.89 100.99 47.02 102.14 47.15 C103.17 47.26 104.19 47.38 105.25 47.5 C107.86 47.98 109.72 48.68 112 50 C110.38 50.84 108.75 51.67 107.12 52.5 C106.22 52.96 105.32 53.43 104.38 53.91 C102 55 102 55 100 55 C100 55.66 100 56.32 100 57 C100.92 57.1 101.84 57.2 102.79 57.31 C108.12 58.07 113.26 59.61 118.44 61.06 C119.46 61.34 120.47 61.63 121.52 61.92 C124.02 62.61 126.51 63.3 129 64 C128.67 64.66 128.34 65.32 128 66 C125.06 66.88 122.17 67.64 119.19 68.35 C118.3 68.56 117.42 68.78 116.51 69 C113.67 69.7 110.84 70.38 108 71.06 C105.16 71.75 102.33 72.44 99.49 73.13 C97.72 73.56 95.96 73.99 94.19 74.41 C90.28 75.07 90.28 75.07 87 77 C88.03 77.22 89.05 77.44 90.11 77.66 C98.01 79.44 104.79 81.45 111.77 85.73 C115.7 87.97 119.38 88.16 123.86 88.32 C124.97 88.36 126.09 88.4 127.24 88.44 C128.4 88.48 129.56 88.52 130.75 88.56 C132.51 88.63 132.51 88.63 134.31 88.69 C137.21 88.8 140.1 88.9 143 89 C143.06 85.22 143.02 82.07 142.12 78.38 C142 75 142 75 144.25 72.31 C148.82 69.09 155.68 65.43 161.34 66.4 C161.89 66.6 162.43 66.8 163 67 C161.35 67.66 159.7 68.32 158 69 C157.06 74.05 157.06 74.05 158 79 C158.75 84 158.75 84 158 87 C153.88 92.44 147.53 96.21 141 98 C136.67 98.58 132.37 98.87 128 99 C129.41 99.65 130.83 100.29 132.25 100.94 C133.04 101.3 133.83 101.66 134.64 102.03 C143.15 105.54 151.57 104.65 159.97 101.29 C160.97 100.86 161.97 100.44 163 100 C164.92 99.2 166.85 98.41 168.77 97.62 C170.66 96.85 172.54 96.06 174.42 95.27 C178.07 93.97 181.17 93.41 185 93 C183.88 95.97 182.78 98.33 181 101 C180.83 103.63 180.83 103.63 181 106 C182.72 105.78 182.72 105.78 184.47 105.56 C186 105.37 187.53 105.19 189.06 105 C189.81 104.9 190.57 104.81 191.34 104.71 C199.82 103.68 206.74 103.14 214 108.46 C215.76 109.92 217.45 111.31 219 113 C219 113.66 219 114.32 219 115 C218.2 114.84 217.39 114.67 216.56 114.5 C208.88 113.42 203.39 113.21 197 118 C195.95 118.86 194.91 119.74 193.88 120.62 C189.69 124.08 187.53 125.05 182.06 124.88 C176.49 123.96 172.83 121.18 169.38 116.81 C166.74 113.66 166.74 113.66 163 113 C161.09 113.61 161.09 113.61 159.19 114.81 C158.41 115.27 157.64 115.72 156.84 116.19 C154.62 117.61 152.43 119.05 150.25 120.53 C149.59 120.97 148.93 121.42 148.26 121.88 C146.94 122.78 145.62 123.69 144.32 124.61 C138.7 128.47 134.52 129.14 127.69 129.06 C126.62 129.05 125.55 129.04 124.45 129.04 C123.24 129.02 123.24 129.02 122 129 C122.91 129.42 123.81 129.85 124.75 130.29 C135.87 135.59 145.23 141.31 152 152 C152 152.66 152 153.32 152 154 C155.22 154.87 155.22 154.87 159 155 C160.42 154.04 160.42 154.04 161.88 153.06 C166.03 150.32 169.15 150.4 174 151 C177.56 152 177.56 152 180 153 C180 153.33 180 153.66 180 154 C176.7 154.99 173.4 155.98 170 157 C169.72 158.77 169.48 160.54 169.25 162.31 C169.11 163.3 168.97 164.28 168.83 165.3 C168.72 168.08 168.72 168.08 170.7 169.79 C177.62 173.44 186.34 173.45 194 174 C194 174.66 194 175.32 194 176 C192.06 176.98 190.13 177.96 188.19 178.94 C187.11 179.48 186.03 180.03 184.92 180.59 C182 182 182 182 179 183 C179.33 183.99 179.66 184.98 180 186 C183.01 187 185.54 187.3 188.69 187.56 C189.68 187.65 190.68 187.73 191.7 187.82 C192.46 187.88 193.22 187.94 194 188 C193.86 188.64 193.71 189.28 193.56 189.94 C192.46 195.07 191.67 199.76 192 205 C193.14 206.36 193.14 206.36 196.18 206.21 C202.57 206.13 208.8 204.75 215.06 203.56 C217.53 203.1 220 202.65 222.47 202.19 C223.56 201.99 224.64 201.78 225.76 201.57 C229.17 200.97 232.58 200.47 236 200 C235 202 235 202 232.95 202.82 C232.06 203.09 231.17 203.35 230.25 203.63 C229.26 203.94 228.26 204.25 227.24 204.56 C226.17 204.89 225.1 205.22 224 205.56 C205.31 211.57 190.7 218.88 179 235 C177.63 231 178.01 226.97 178.12 222.81 C178.23 216.24 177.66 211.1 175 205 C165.66 204.39 158.96 204.86 151 210 C151.84 210.48 151.84 210.48 152.69 210.96 C161.43 216.31 167.44 223.88 172 233 C172 233.66 172 234.32 172 235 C170.91 234.84 169.81 234.67 168.69 234.5 C167.13 234.32 165.56 234.15 164 234 C163.2 233.92 162.4 233.84 161.58 233.76 C151.23 233.23 141.45 237.1 132 241 C136.36 245.85 141.45 249.09 146.94 252.56 C148.7 253.69 150.46 254.81 152.21 255.94 C153.04 256.47 153.86 256.99 154.71 257.53 C157.5 259.32 160.25 261.15 163 263 C162 265 162 265 159.06 266.07 C157.86 266.42 156.67 266.77 155.44 267.12 C153.64 267.65 153.64 267.65 151.81 268.2 C150.88 268.46 149.95 268.73 149 269 C148.78 271.07 148.78 271.07 150.29 272.45 C150.87 273 151.46 273.55 152.06 274.12 C155.93 277.88 159.62 281.79 163 286 C163 286.33 163 286.66 163 287 C158.05 287 153.1 287 148 287 C148.66 289.31 149.32 291.62 150 294 C147.69 293.34 145.38 292.68 143 292 C148.61 297.61 154.22 303.22 160 309 C159.67 309.66 159.34 310.32 159 311 C147.45 307.37 135.9 303.74 124 300 C130.15 316.91 138.65 328.96 155 337 C155 337.66 155 338.32 155 339 C145.52 342.16 135.87 339.79 127 336 C122.71 333.03 118.42 330.06 114 327 C113.67 338.88 113.34 350.76 113 363 C111.29 360.43 110.34 358.48 109.31 355.62 C109 354.78 108.7 353.94 108.38 353.08 C107.92 351.77 107.92 351.77 107.44 350.44 C106.81 348.71 106.19 346.98 105.56 345.25 C105.28 344.48 105.01 343.71 104.72 342.92 C104.02 340.96 104.02 340.96 103 339 C96.5 344.97 94.6 350.36 93.81 358.88 C93.73 359.66 93.65 360.44 93.56 361.25 C93.37 363.17 93.18 365.08 93 367 C83.84 362.85 80.79 353.75 77 345 C76.67 350.94 76.34 356.88 76 363 C73.59 360.59 72.99 358.58 71.88 355.38 C71.52 354.37 71.17 353.37 70.8 352.34 C70.54 351.57 70.27 350.79 70 350 C68.97 356.51 72.36 360.94 76 366 C78.86 369.48 81.88 372.76 85 376 C85.67 376.71 86.34 377.42 87.03 378.15 C90.49 381.84 90.49 381.84 95 384 C95.56 383 95.56 383 96.14 381.99 C101.97 371.92 101.97 371.92 106 369 C110.24 369.09 114.02 370.58 118 372 C118.66 371.34 119.32 370.68 120 370 C121.67 370.37 121.67 370.37 123.38 370.75 C129.76 371.68 134.77 368.34 140 365 C143.15 362.56 146.16 360.02 149.18 357.41 C151.68 355.27 154.19 353.27 156.88 351.38 C157.53 350.91 158.19 350.44 158.87 349.96 C161.86 348.61 163.73 348.59 167 349 C169.75 350.14 172.26 351.6 174.81 353.12 C175.52 353.53 176.23 353.94 176.96 354.36 C180.8 356.59 184.42 358.98 188 361.62 C190.94 363.67 192.45 364.3 196 363.69 C196.65 363.55 197.3 363.41 197.98 363.26 C205.95 362.23 213.06 368.57 219 373 C238.89 387.82 259.13 400.07 283.96 403.78 C307.17 407.4 333.37 416.8 353.33 429.26 C366.74 437.58 377.89 440.98 393.53 442.6 C399.69 443.31 405.78 444.38 411.88 445.44 C413.1 445.65 414.32 445.86 415.58 446.08 C435.46 449.6 454.76 454.15 472.13 464.78 C475.64 466.27 477.35 465.88 481 465 C482.68 464.85 484.37 464.74 486.06 464.69 C486.88 464.65 487.69 464.61 488.54 464.57 C492.12 465.19 493.51 466.33 496 469 C497.43 472.02 498.26 475.15 499.12 478.38 C499.41 479.41 499.7 480.45 500 481.51 C501.03 485.33 502.02 489.16 503 493 C503.19 493.75 503.38 494.5 503.58 495.27 C522.28 568.87 535.4 643.67 547.4 718.61 C548.02 722.49 548.65 726.38 549.27 730.27 C549.7 732.92 550.12 735.58 550.54 738.24 C551.9 746.74 553.35 755.23 554.96 763.69 C555.1 764.49 555.24 765.29 555.39 766.11 C556.38 771.16 557.95 775.53 560.2 780.16 C561 782 561 782 561 784 C561.51 784.24 562.02 784.49 562.55 784.74 C564.48 785.73 566.38 786.8 568.27 787.88 C584.75 797.27 602.75 802.56 621.16 806.83 C630.78 809.16 639.94 812.84 646 821 C651.85 830.94 657.23 843.51 654.46 855.29 C653.29 858.08 651.68 860.48 650 863 C649.58 865.1 649.21 867.2 648.88 869.31 C647.17 877.75 643.07 888.54 636 894 C633.5 893.69 633.5 893.69 631 893 C630.01 893 629.02 893 628 893 C626.06 895.25 626.06 895.25 624.19 898.12 C618.02 906.86 618.02 906.86 614 910 C610.82 909.64 610.82 909.64 608 909 C607.52 909.71 607.04 910.42 606.54 911.15 C605.59 912.53 605.59 912.53 604.62 913.94 C603.69 915.31 603.69 915.31 602.73 916.71 C600.88 919.15 600.07 919.82 597.1 920.32 C587.5 921.29 579.14 921.84 571.21 915.7 C568.58 913.41 566.07 911.04 563.62 908.57 C561.55 906.56 559.26 904.94 556.94 903.25 C554.92 901.44 554.1 900.61 553.65 897.93 C554.02 892.91 555.8 888.08 557.48 883.36 C558.1 880.55 557.83 878.74 557 876 C552.88 872.02 548.72 871.92 543.16 871.71 C531.41 871.26 520.29 869.9 511.39 861.47 C503.76 853.1 496.64 841.58 496.88 830.03 C497.06 827.01 497.53 824.05 498 821.06 C504.9 768.89 489.07 719.6 467 673 C466.55 672.04 466.1 671.07 465.64 670.08 C460.94 660.07 456.1 652.3 447.95 644.81 C433.42 631.36 422.23 611.04 420.8 591.27 C420.71 588.5 420.67 585.73 420.66 582.96 C420.64 581.95 420.63 580.95 420.61 579.91 C420.55 575.66 420.51 571.41 420.47 567.16 C420.43 564.03 420.39 560.9 420.34 557.77 C420.34 556.83 420.33 555.88 420.33 554.9 C420.18 544.89 418.72 536.73 412 529 C404.92 522.87 394.89 522.74 386 523 C382.9 523.25 379.83 523.62 376.74 523.99 C366.18 525.13 355.74 525.27 345.12 525.19 C343.28 525.18 341.44 525.17 339.59 525.17 C327.04 525.11 314.52 524.82 302 524 C298.52 535.6 295.58 547.15 293.69 559.12 C293.53 560.13 293.37 561.13 293.21 562.17 C290.71 578.82 290.68 595.5 290.59 612.3 C290.58 615.43 290.54 618.57 290.49 621.7 C290.43 625.53 290.4 629.35 290.39 633.18 C290.38 634.62 290.36 636.06 290.34 637.5 C290.14 647.36 291.77 654.53 297 663 C297.72 664.21 297.72 664.21 298.45 665.44 C299.74 667.57 301.08 669.66 302.44 671.75 C303.48 673.39 304.53 675.02 305.58 676.66 C306.13 677.52 306.68 678.38 307.25 679.26 C342.13 733.77 342.13 733.77 340 747 C338.02 749.95 338.02 749.95 335.25 752.69 C334.24 753.71 333.24 754.74 332.23 755.76 C331.44 756.55 331.44 756.55 330.63 757.35 C327.85 760.16 325.18 763.09 322.5 766 C322 766.54 321.49 767.08 320.97 767.64 C318.48 770.32 316.12 773.01 314 776 C314.63 776.59 315.26 777.19 315.91 777.8 C321.87 783.58 328.07 789.6 332 797 C331.68 800.51 329.88 803.06 328 806 C328.56 806.25 329.11 806.49 329.69 806.75 C335 809.62 338.97 813.2 341 819 C342.37 828.46 339.26 837.28 336.5 846.19 C336.07 847.63 335.63 849.07 335.2 850.52 C334.15 854.02 333.08 857.51 332 861 C332.84 861.33 333.69 861.65 334.55 861.99 C335.65 862.43 336.75 862.86 337.88 863.31 C338.97 863.74 340.06 864.17 341.18 864.61 C344 866 344 866 346 869 C346.68 875.03 345.8 878.95 343.5 884.56 C340.29 892.44 340.81 897.78 342 906 C342.33 908.33 342.67 910.67 343 913 C343.14 913.8 343.27 914.61 343.41 915.43 C343.62 917.44 343.62 917.44 343 921 C340.15 924.31 336.91 927.04 333 929 C332.96 929.98 332.91 930.96 332.86 931.97 C330.74 977.49 327.27 1025.61 291.69 1058.51 C285.77 1063.72 279.36 1068.34 273 1073 C272.39 1073.45 271.77 1073.91 271.14 1074.37 C259.05 1083.29 246.41 1091.39 233.56 1099.19 C232.93 1099.57 232.3 1099.96 231.64 1100.36 C227.24 1103 227.24 1103 225 1103 C224.8 1103.66 224.6 1104.32 224.4 1105 C222.44 1109.2 219.6 1112.42 216.62 1115.94 C216 1116.69 215.37 1117.44 214.73 1118.21 C207.94 1126.32 201.09 1134.37 194.09 1142.3 C184.15 1153.65 177.3 1166.25 170.2 1179.5 C164.22 1190.59 157.68 1201.31 151 1212 C150.48 1212.83 149.96 1213.67 149.43 1214.53 C140.78 1228.37 132.03 1242.18 122.83 1255.66 C116.16 1265.43 109.99 1275.26 105 1286 C104.68 1286.68 104.37 1287.36 104.04 1288.05 C100.54 1295.52 100.54 1295.52 100.65 1303.51 C102.2 1306.01 103.93 1307.9 106 1310 C106.9 1311 107.8 1312 108.69 1313 C110.54 1315.06 112.41 1317.1 114.32 1319.11 C116.22 1321.16 117.91 1323.16 119.62 1325.37 C120.4 1326.24 121.19 1327.11 122 1328 C125.33 1327.98 125.33 1327.98 127.63 1327.45 C136.62 1325.76 145.41 1326.58 153.24 1331.37 C159.62 1335.97 164.28 1341.77 169 1348 C169.43 1348.56 169.85 1349.11 170.29 1349.69 C177.3 1358.91 183.75 1368.45 189.91 1378.26 C190.81 1379.71 191.75 1381.13 192.69 1382.55 C194 1385 194 1385 194.75 1388.41 C196.43 1393.22 199.1 1395.26 203 1398.38 C204.37 1399.51 205.73 1400.65 207.1 1401.78 C207.77 1402.33 208.43 1402.88 209.12 1403.44 C211.62 1405.52 214.03 1407.69 216.44 1409.88 C219.21 1412.38 221.99 1414.87 224.81 1417.31 C281.02 1466.45 281.02 1466.45 283.69 1499.08 C285.4 1527.63 267.13 1554.23 249 1575 C248.28 1575.88 247.56 1576.75 246.82 1577.65 C235.01 1591.51 219.12 1601.15 204 1611 C185.55 1621.53 185.55 1621.53 174.39 1638.34 C173.89 1640.95 173.47 1643.56 173.06 1646.19 C168.74 1670.79 152.96 1683.63 134.83 1699.39 C132.41 1701.51 130.05 1703.69 127.69 1705.88 C122.28 1710.79 116.72 1715.45 111 1720 C110.06 1720.76 109.12 1721.51 108.16 1722.29 C93.43 1733.93 77.62 1744.29 61 1753 C60.36 1753.34 59.72 1753.67 59.05 1754.02 C54.41 1756.44 49.72 1758.74 45 1761 C43.94 1761.51 43.94 1761.51 42.87 1762.03 C27.58 1769.33 9.29 1777.37 -8 1777 C-15.53 1773.49 -20.98 1766.13 -26.28 1759.93 C-27.96 1758.04 -29.73 1756.31 -31.56 1754.56 C-44.68 1741.5 -51.87 1720.22 -52.31 1701.94 C-52.13 1685.6 -43.79 1669.91 -33 1658 C-32.33 1657.25 -31.67 1656.51 -30.98 1655.74 C-20.25 1644.35 -7.24 1637.4 6.44 1630.19 C21.15 1622.37 37.96 1612.94 43.61 1596.2 C44.4 1591.77 44.3 1587.21 44.43 1582.73 C45.39 1571.47 50.11 1560.84 54.5 1550.56 C63.15 1530.03 63.15 1530.03 64 1508 C62.58 1504.68 62.58 1504.68 61 1502 C59.27 1502.12 59.27 1502.12 57.5 1502.25 C47.56 1502.13 41.17 1494.92 34.48 1488.43 C33.11 1487.11 31.72 1485.81 30.32 1484.52 C17.95 1472.74 7.41 1457.34 6.62 1439.81 C7.04 1423.22 16.85 1408.14 26.67 1395.37 C29.38 1391.82 29.38 1391.82 29.69 1387.54 C27.24 1383.86 24.58 1380.39 21.81 1376.94 C20.53 1375.32 19.26 1373.7 17.98 1372.08 C17.32 1371.24 16.66 1370.4 15.98 1369.54 C12.8 1365.47 9.71 1361.33 6.62 1357.19 C1.22 1349.95 -4.22 1342.75 -9.69 1335.56 C-10.36 1334.68 -11.03 1333.8 -11.72 1332.89 C-12.35 1332.06 -12.99 1331.23 -13.64 1330.38 C-14.22 1329.61 -14.81 1328.84 -15.41 1328.05 C-16.73 1326.35 -18.09 1324.68 -19.46 1323.03 C-21 1321 -21 1321 -21 1319 C-22.06 1318.61 -22.06 1318.61 -23.14 1318.21 C-26.19 1316.92 -28.88 1315.37 -31.7 1313.65 C-32.81 1312.97 -33.93 1312.29 -35.07 1311.59 C-36.28 1310.85 -37.48 1310.11 -38.69 1309.38 C-39.94 1308.61 -41.2 1307.84 -42.45 1307.08 C-46.3 1304.72 -50.15 1302.36 -54 1300 C-54.88 1299.46 -54.88 1299.46 -55.77 1298.91 C-59.62 1296.55 -63.47 1294.18 -67.31 1291.81 C-68.37 1291.16 -69.43 1290.51 -70.51 1289.84 C-75.86 1286.56 -81.2 1283.25 -86.53 1279.92 C-88.6 1278.64 -90.68 1277.35 -92.75 1276.06 C-93.7 1275.46 -94.64 1274.87 -95.62 1274.25 C-101.85 1270.31 -101.85 1270.31 -109 1269 C-111.73 1270.35 -111.73 1270.35 -114 1272 C-114.66 1272 -115.32 1272 -116 1272 C-116.24 1272.63 -116.48 1273.26 -116.73 1273.91 C-118.47 1278.14 -120.4 1282.28 -122.31 1286.44 C-125.33 1293.02 -128.29 1299.62 -131.13 1306.28 C-140.67 1328.63 -150.6 1350.64 -164 1371 C-164.41 1371.63 -164.83 1372.26 -165.26 1372.91 C-170.98 1381.51 -177.44 1389.17 -184.63 1396.58 C-185.83 1397.82 -187 1399.09 -188.16 1400.36 C-210.07 1423.58 -241.35 1438.48 -268.88 1453.69 C-306.43 1474.44 -341.27 1498.06 -373 1527 C-374 1527.9 -375 1528.79 -376 1529.69 C-378.08 1531.55 -380.13 1533.44 -382.16 1535.36 C-385 1538 -385 1538 -387.4 1539.89 C-394.64 1546.29 -394.76 1555.19 -396.09 1564.24 C-398.26 1578.82 -403.73 1592.58 -415.36 1602.14 C-422.64 1607.27 -429.39 1611.61 -438.56 1610.69 C-442.87 1610.39 -445.19 1610.83 -448.53 1613.47 C-451.37 1615.99 -454.01 1618.68 -456.59 1621.48 C-459.27 1624.37 -462.09 1627.12 -464.92 1629.85 C-469.57 1634.36 -473.65 1639.17 -477.72 1644.2 C-488.69 1657.67 -500.94 1669.82 -519 1672 C-532.51 1673.24 -544.35 1669.31 -555 1661 C-570.21 1647.8 -579.75 1630.13 -588.28 1612.16 C-588.7 1611.27 -588.7 1611.27 -589.13 1610.36 C-590.53 1607.41 -591.91 1604.45 -593.27 1601.48 C-596.13 1595.36 -599.12 1590.07 -603.5 1584.9 C-605 1583 -605 1583 -606.09 1580.82 C-607.3 1578.41 -608.57 1578.08 -611 1577 C-612.47 1575.93 -613.93 1574.85 -615.38 1573.75 C-625.15 1566.91 -635.77 1563.71 -647.12 1560.56 C-665.01 1555.56 -676.58 1547.54 -685.99 1531.29 C-695.19 1514.81 -700.02 1497.83 -701 1479 C-701.09 1477.33 -701.09 1477.33 -701.18 1475.62 C-701.72 1452.27 -698.19 1426.84 -682.62 1408.56 C-669.81 1395.18 -652.21 1389.64 -634.03 1389 C-624.76 1388.88 -614 1389.91 -606 1395 C-601.37 1399.73 -598.77 1405.07 -595.94 1411 C-590.29 1422.53 -584.27 1433.8 -578 1445 C-577.08 1446.65 -577.08 1446.65 -576.14 1448.34 C-574.19 1451.81 -572.22 1455.28 -570.25 1458.75 C-569.65 1459.82 -569.05 1460.89 -568.43 1462 C-563.03 1471.4 -557.28 1480.24 -548.12 1486.31 C-547.52 1486.72 -546.92 1487.13 -546.3 1487.56 C-544.55 1488.73 -542.78 1489.87 -541 1491 C-540.07 1491.6 -539.15 1492.19 -538.19 1492.81 C-533.86 1495.3 -531.08 1496.42 -526.12 1495.31 C-525.43 1495.08 -524.73 1494.85 -524.01 1494.61 C-522 1494 -522 1494 -518 1494 C-517.91 1493.16 -517.82 1492.33 -517.73 1491.46 C-516.88 1487.44 -515.28 1484.14 -513.31 1480.56 C-512.77 1479.57 -512.77 1479.57 -512.21 1478.55 C-504.36 1464.51 -492.01 1457.58 -476.74 1453.03 C-465.76 1450.23 -456.16 1449.37 -446 1455 C-443.07 1456.98 -440.24 1459.03 -437.45 1461.2 C-435.34 1462.75 -433.38 1463.93 -431 1465 C-430.21 1464.32 -429.42 1463.64 -428.61 1462.95 C-421.46 1456.82 -414.15 1450.97 -406.65 1445.26 C-403.85 1443.12 -401.08 1440.93 -398.31 1438.75 C-392.95 1434.53 -387.57 1430.32 -382.19 1426.12 C-381.05 1425.24 -381.05 1425.24 -379.89 1424.34 C-376.13 1421.42 -372.36 1418.51 -368.57 1415.64 C-349.47 1401.21 -332.04 1385.23 -315.16 1368.29 C-313.11 1366.23 -311.06 1364.19 -309 1362.14 C-307.67 1360.81 -306.34 1359.47 -305.01 1358.14 C-304.41 1357.54 -303.81 1356.94 -303.19 1356.33 C-299.47 1352.59 -295.95 1348.73 -292.52 1344.75 C-290.56 1342.49 -288.5 1340.35 -286.44 1338.19 C-279.95 1331.07 -274.41 1323.28 -268.78 1315.47 C-267.05 1313.08 -265.31 1310.69 -263.57 1308.3 C-239.1 1274.8 -219.14 1238.73 -200 1202 C-199.43 1200.93 -198.86 1199.86 -198.27 1198.75 C-196.72 1195.39 -196.99 1193.94 -197.81 1190.38 C-198.9 1184.45 -199.3 1178.71 -199.38 1172.69 C-199.4 1171.85 -199.43 1171.02 -199.45 1170.16 C-199.48 1163.07 -197.61 1158.01 -192.96 1152.64 C-187.95 1148.36 -182.92 1144.91 -177 1142 C-185.03 1132.14 -194.16 1123.21 -204.12 1115.31 C-207.5 1112.6 -210.78 1109.78 -214.06 1106.94 C-218.02 1103.52 -222.01 1100.16 -226.12 1096.94 C-254.26 1074.59 -262.12 1048.66 -266.36 1014.03 C-267.92 1000.32 -268.2 986.6 -268.25 972.81 C-268.26 972.03 -268.26 971.25 -268.27 970.44 C-268.42 941.25 -268.42 941.25 -261.6 933.38 C-256.79 929.44 -251.68 926.03 -246.48 922.64 C-244.15 921.22 -244.15 921.22 -243 920 C-243.43 917.36 -243.92 914.75 -244.44 912.12 C-247.03 898.21 -246.98 886.03 -239.71 873.49 C-236.96 869.49 -233.74 865.87 -229.01 864.37 C-214.42 861.7 -197.12 869.55 -185.01 877.27 C-182.97 878.25 -182.97 878.25 -180.84 877.2 C-180.07 876.72 -179.3 876.24 -178.52 875.75 C-177.66 875.22 -176.81 874.7 -175.93 874.15 C-175.05 873.59 -174.16 873.02 -173.25 872.44 C-172.38 871.9 -171.51 871.36 -170.62 870.8 C-165.66 867.74 -165.66 867.74 -160.86 864.45 C-160.2 863.98 -159.54 863.51 -158.86 863.04 C-158.3 862.62 -157.74 862.2 -157.17 861.77 C-151.36 859.71 -143.65 862.75 -137.91 864.35 C-137.04 864.59 -136.17 864.82 -135.27 865.07 C-133.39 865.58 -131.52 866.09 -129.64 866.61 C-126.67 867.43 -123.7 868.24 -120.72 869.04 C-112.28 871.33 -103.83 873.63 -95.39 875.95 C-90.22 877.37 -85.04 878.78 -79.86 880.18 C-77.89 880.71 -75.92 881.25 -73.95 881.8 C-71.21 882.56 -68.45 883.3 -65.7 884.04 C-64.49 884.38 -64.49 884.38 -63.24 884.74 C-58.82 885.9 -56.16 886.39 -52 884 C-50.56 883.13 -49.14 882.23 -47.74 881.29 C-46.95 880.79 -46.16 880.29 -45.34 879.77 C-43.71 878.72 -42.08 877.65 -40.48 876.55 C-34.48 872.82 -34.48 872.82 -30.62 873.29 C-29.79 873.55 -28.96 873.81 -28.1 874.07 C-27.14 874.37 -26.17 874.66 -25.18 874.97 C-24.13 875.31 -23.08 875.65 -22 876 C-20.89 876.35 -19.78 876.71 -18.63 877.07 C-15.53 878.07 -12.44 879.09 -9.35 880.11 C-7.29 880.8 -5.24 881.48 -3.18 882.16 C2.67 884.09 8.51 886.03 14.36 887.97 C17.95 889.16 21.55 890.35 25.15 891.54 C26.51 891.98 27.86 892.43 29.21 892.89 C37.41 895.62 45.59 898.05 54 900 C57.11 896.89 57.11 896.89 57.99 892.79 C56.53 888.67 53.88 885.8 51.06 882.5 C49.87 881.07 48.68 879.63 47.48 878.2 C46.89 877.49 46.3 876.78 45.69 876.04 C23.55 849.25 23.55 849.25 22.64 842.2 C23.12 837.95 24.66 836.69 27.75 833.81 C28.63 832.97 29.51 832.13 30.42 831.27 C32.55 829.39 34.69 827.65 37 826 C36.35 825.5 35.7 825.01 35.02 824.5 C22.95 815.11 22.95 815.11 19.88 808.62 C20.34 798.87 28.65 788.45 35.06 781.62 C37.33 779.16 37.33 779.16 36.75 776.19 C36.02 773.07 35.07 770.25 33.88 767.27 C33.23 765.6 33.23 765.6 32.56 763.9 C32.09 762.69 31.61 761.49 31.12 760.25 C20.64 732.99 12.63 705.43 5.56 677.12 C5.39 676.43 5.21 675.73 5.03 675.01 C-5.51 632.86 -5.51 632.86 -7.01 617.18 C-7.78 607.83 -7.78 607.83 -12.75 600.19 C-14.16 599.11 -15.57 598.05 -17 597 C-18.37 595.53 -19.7 594.03 -21 592.5 C-21.87 591.49 -21.87 591.49 -22.75 590.47 C-23.16 589.98 -23.57 589.5 -24 589 C-23.65 588.39 -23.3 587.77 -22.95 587.14 C-21.56 582.54 -22.32 578.47 -22.88 573.75 C-25.81 544.51 -24.07 519.76 -9 494 C-8.67 493.67 -8.34 493.34 -8 493 C-7.92 491.29 -7.84 489.59 -7.76 487.88 C-7.06 476.92 -2.45 471.64 5 464 C6.94 461.7 8.46 459.59 10 457 C9.16 448.46 -0.48 441.33 -6.65 436.19 C-12.84 431.18 -19.39 426.61 -26.08 422.27 C-27.42 421.39 -28.73 420.46 -30.01 419.5 C-34.35 416.41 -34.35 416.41 -39.61 416.46 C-43.02 418.01 -46.14 419.68 -49.31 421.69 C-49.87 422.04 -50.43 422.39 -51.01 422.76 C-54.48 424.96 -57.85 427.29 -61.19 429.69 C-69.03 435.21 -76.1 439.71 -86 438 C-92.67 436.06 -97.16 431.66 -101 426 C-102.56 422.85 -104.01 419.69 -105.35 416.44 C-106.82 413.69 -106.82 413.69 -110.06 413.15 C-111.7 413.07 -113.35 413 -115 413 C-116.2 410.59 -116.1 409.05 -116.06 406.38 C-116.05 405.56 -116.04 404.74 -116.04 403.9 C-116.02 402.96 -116.02 402.96 -116 402 C-116.72 401.88 -117.45 401.76 -118.2 401.63 C-119.16 401.47 -120.13 401.3 -121.12 401.12 C-122.55 400.88 -122.55 400.88 -124.01 400.63 C-127.11 399.98 -130.02 399.05 -133 398 C-132.78 397.13 -132.56 396.26 -132.33 395.36 C-131.75 391.29 -131.28 387.8 -133 384 C-137.7 379.33 -143.86 376.49 -149.64 373.38 C-153.08 371.37 -156.43 369.07 -159 366 C-159 365.01 -159 364.02 -159 363 C-158.16 362.62 -158.16 362.62 -157.31 362.22 C-146.69 356.89 -140.97 347.98 -135 338 C-135.7 337.44 -136.4 336.89 -137.12 336.31 C-143.1 331.51 -148.71 326.56 -154 321 C-152.47 332.01 -150.72 342.49 -147 353 C-155.78 351.68 -161.82 344.81 -167 338 C-168.02 336.35 -169.03 334.68 -170 333 C-168.92 345.85 -167.64 358.65 -165.97 371.43 C-165.22 377.35 -164.86 383.04 -165 389 C-168.48 385.86 -170.75 382.41 -172.94 378.31 C-173.45 377.34 -173.45 377.34 -173.98 376.36 C-178.19 368.13 -182 358.31 -182 349 C-182.66 349 -183.32 349 -184 349 C-184.1 350.24 -184.21 351.48 -184.31 352.75 C-184.95 358.64 -186.46 364.29 -188 370 C-188.66 369.67 -189.32 369.34 -190 369 C-190.79 366.45 -191.46 363.96 -192.06 361.38 C-192.24 360.68 -192.41 359.98 -192.59 359.25 C-194.76 350.29 -195.13 341.77 -195.06 332.56 C-195.06 331.35 -195.05 330.15 -195.05 328.9 C-195.04 325.93 -195.02 322.97 -195 320 C-200.61 320.99 -206.22 321.98 -212 323 C-210.18 315.33 -208.08 307.83 -205.63 300.35 C-204.69 297.44 -204 295.08 -204 292 C-205.32 293.98 -206.64 295.96 -208 298 C-211 297 -211 297 -212.75 294 C-215.2 287.61 -213.46 281.94 -211 275.81 C-208.79 270.2 -208.45 264.96 -208.27 258.97 C-208 256 -208 256 -206 253 C-208.97 253.33 -211.94 253.66 -215 254 C-214.78 254.7 -214.57 255.4 -214.34 256.12 C-210.93 267.75 -210.93 267.75 -212 273 C-215.54 276.67 -220.32 278.67 -224.83 280.9 C-225.5 281.24 -226.16 281.58 -226.85 281.92 C-228.18 282.59 -229.51 283.23 -230.86 283.85 C-234.28 285.54 -235.94 286.89 -237.91 290.2 C-239.16 294.56 -239.48 298.42 -239.56 302.94 C-239.62 304.69 -239.68 306.45 -239.75 308.2 C-239.8 309.59 -239.8 309.59 -239.86 311.01 C-240.12 316.44 -240.59 321.84 -241.06 327.25 C-241.15 328.32 -241.25 329.38 -241.34 330.48 C-241.56 332.99 -241.78 335.49 -242 338 C-242.66 337.67 -243.32 337.34 -244 337 C-244.78 334.43 -245.45 331.92 -246.06 329.31 C-246.24 328.6 -246.41 327.9 -246.59 327.17 C-248.69 318.46 -249.22 310.14 -249.24 301.21 C-249.25 299.01 -249.28 296.81 -249.31 294.61 C-249.32 293.2 -249.32 291.79 -249.33 290.38 C-249.34 289.1 -249.35 287.83 -249.36 286.52 C-248.97 282.66 -248.03 280.29 -246 277 C-243.21 274.88 -243.21 274.88 -239.94 273 C-239.37 272.67 -238.79 272.33 -238.21 271.99 C-236.48 270.98 -234.74 269.99 -233 269 C-231.06 267.84 -229.12 266.67 -227.19 265.5 C-225.79 264.67 -224.4 263.83 -223 263 C-223.47 262.35 -223.94 261.7 -224.43 261.02 C-232.58 249.58 -232.58 249.58 -233.5 243.94 C-232.81 239.89 -231.06 238.7 -228 236 C-225.77 234.65 -223.5 233.38 -221.19 232.19 C-220.03 231.58 -218.86 230.98 -217.67 230.36 C-216.79 229.91 -215.91 229.46 -215 229 C-218.9 225.1 -225.1 224.24 -230.44 223.56 C-233.08 223.75 -233.08 223.75 -234.56 225.68 C-238.88 232.64 -239.49 241.97 -240 250 C-248.83 248.23 -257.39 245.59 -266 243 C-266.08 244.3 -266.16 245.6 -266.25 246.94 C-267.01 254.78 -269.1 262.38 -271 270 C-275.73 262.9 -274.21 251.61 -274.25 243.31 C-274.28 241.7 -274.28 241.7 -274.31 240.05 C-274.34 233.64 -273.79 228.81 -271 223 C-268.42 220.78 -265.59 220.59 -262.21 220.66 C-257.31 221.41 -252.64 223.29 -248 225 C-247.87 224.26 -247.75 223.52 -247.62 222.76 C-247.04 220.19 -246.31 218.21 -245.12 215.88 C-244.8 215.21 -244.47 214.55 -244.13 213.87 C-242.91 211.85 -241.87 210.44 -240 209 C-231.7 207.94 -222.67 212.23 -215 215 C-218.96 203.66 -224.27 193.14 -235 187 C-241.78 183.78 -248.87 181.33 -256 179 C-255.67 178.34 -255.34 177.68 -255 177 C-245.98 174.81 -232.74 174.2 -224.04 177.73 C-219.52 180.54 -215.75 184.27 -212 188 C-212.14 187.48 -212.29 186.95 -212.44 186.41 C-215.28 174.54 -214.86 161.83 -212 150 C-209.65 152.14 -208.36 154.14 -207 157 C-206.93 156.23 -206.86 155.46 -206.79 154.67 C-205.03 135.76 -203.41 118.84 -194 102 C-193.67 102 -193.34 102 -193 102 C-191.56 114.66 -190.25 127.32 -189 140 C-186.03 132.08 -183.06 124.16 -180 116 C-179.67 116 -179.34 116 -179 116 C-178.34 121.94 -177.68 127.88 -177 134 C-174.59 131.4 -174.59 131.4 -172.12 128.75 C-167.21 123.68 -161.93 119.69 -156 115.88 C-134.34 101.91 -124.43 86.36 -117 62 C-116.67 62 -116.34 62 -116 62 C-115.77 73.25 -116.29 83.88 -118 95 C-118 95.66 -118 96.32 -118 97 C-117.37 96.34 -116.74 95.67 -116.09 94.99 C-106.1 84.68 -106.1 84.68 -100 82 C-99.01 82 -98.02 82 -97 82 C-96.67 85.96 -96.34 89.92 -96 94 C-94.96 93.15 -93.92 92.31 -92.84 91.44 C-80.88 81.9 -68.85 74.24 -54 70 C-58.95 69.67 -63.9 69.34 -69 69 C-62.81 53.53 -50.27 41 -39 29 C-38.42 28.36 -37.84 27.73 -37.24 27.07 C-30.17 19.62 -10.29 0 0 0 Z " fill="#FEFEFE" transform="translate(3788,464)"/>
<path d="M0 0 C4.83 0 9.66 -0 14.49 -0.02 C112.4 -0.39 210.27 9.26 607.71 144.59 C610.54 146.28 613.38 147.96 616.22 149.64 C631.78 158.9 646.72 169.01 661.59 179.32 C662.36 179.85 663.13 180.38 663.92 180.93 C678.73 191.23 692.89 202.42 706.83 213.87 C708.42 215.17 710.02 216.46 711.62 217.75 C717.56 222.53 723.21 227.56 728.81 232.75 C731.14 234.9 733.5 236.99 735.91 239.07 C739.03 241.77 741.93 244.63 744.83 247.58 C746.61 249.33 748.45 250.95 750.34 252.57 C757.77 258.98 764.62 266.03 770.99 273.49 C772.62 275.35 774.33 277.08 776.09 278.82 C779.81 282.48 783.2 286.36 786.59 290.32 C787.5 291.36 788.41 292.4 789.32 293.44 C795.82 300.94 802.09 308.59 808.15 316.45 C809.66 318.4 811.17 320.33 812.68 322.27 C869.03 394.84 906.66 479.86 936.59 657.32 C936.66 658.41 936.66 658.41 936.72 659.52 C937.46 672.79 937.8 686.03 937.78 699.32 C937.78 700.26 937.78 701.2 937.78 702.17 C937.72 736.37 935.43 770.45 930.59 804.32 C781.43 804.32 632.27 804.32 478.59 804.32 C479.25 795.41 479.91 786.5 480.59 777.32 C481 768.65 481.38 759.99 481.59 751.32 C481.63 749.96 481.63 749.96 481.67 748.57 C483.43 668.59 467.77 587.52 353.11 396.95 C351.42 395.13 349.75 393.31 348.07 391.48 C340.06 382.75 340.06 382.75 331.31 374.78 C329.52 373.25 327.91 371.63 326.28 369.94 C322.63 366.23 318.64 363.01 314.58 359.75 C312.08 357.71 309.64 355.64 307.21 353.53 C242.64 297.81 161.33 261.63 -124.41 206.32 C-125.66 206.24 -126.91 206.17 -128.21 206.09 C-226.89 200.69 -326.92 210.82 -925.51 396.41 C-927.29 397.26 -929.07 398.11 -930.86 398.95 C-948.36 407.27 -965.7 415.91 -983.03 424.57 C-984.14 425.12 -985.26 425.68 -986.41 426.25 C-1000.16 433.11 -1013.84 440.08 -1027.41 447.32 C-1028.54 447.92 -1029.68 448.52 -1030.84 449.15 C-1053.46 461.22 -1075.99 473.45 -1098.09 486.45 C-1103.75 489.78 -1109.45 493.03 -1115.22 496.19 C-1126.88 502.6 -1138.27 509.47 -1149.69 516.29 C-1151.37 517.29 -1153.04 518.29 -1154.72 519.29 C-1168.13 527.29 -1181.47 535.38 -1194.72 543.64 C-1197.53 545.4 -1200.35 547.15 -1203.17 548.9 C-1209.26 552.69 -1215.33 556.5 -1221.41 560.32 C-1222.34 560.9 -1223.27 561.49 -1224.23 562.09 C-1243.34 574.13 -1262.1 586.71 -1280.87 599.28 C-1286.09 602.77 -1291.32 606.26 -1296.55 609.73 C-1308.23 617.5 -1319.9 625.29 -1331.41 633.32 C-1332.17 633.85 -1332.94 634.39 -1333.73 634.94 C-1339.63 639.05 -1345.52 643.18 -1351.41 647.32 C-1352.15 647.84 -1352.89 648.36 -1353.66 648.9 C-1363.88 656.08 -1374.03 663.35 -1384.14 670.68 C-1386.38 672.3 -1388.63 673.92 -1390.87 675.53 C-1407.21 687.3 -1423.39 699.26 -1439.39 711.49 C-1443.87 714.92 -1448.38 718.31 -1452.91 721.69 C-1458.73 726.04 -1464.51 730.45 -1470.26 734.89 C-1472.38 736.52 -1474.49 738.15 -1476.61 739.77 C-1484 745.44 -1491.33 751.17 -1498.65 756.93 C-1500.38 758.29 -1502.11 759.65 -1503.84 761 C-1510.08 765.88 -1516.27 770.81 -1522.41 775.82 C-1529.09 781.26 -1535.83 786.62 -1542.63 791.92 C-1545.85 794.44 -1549.06 796.97 -1552.28 799.5 C-1553.47 800.43 -1554.65 801.37 -1555.84 802.3 C-1556.68 802.96 -1557.53 803.63 -1558.41 804.32 C-1558.41 800.79 -1557.86 800.3 -1555.66 797.69 C-1555.07 796.99 -1554.49 796.29 -1553.89 795.57 C-1553.25 794.82 -1552.62 794.08 -1551.97 793.32 C-1550.67 791.77 -1549.37 790.22 -1548.08 788.68 C-1547.13 787.55 -1547.13 787.55 -1546.16 786.4 C-1543.98 783.81 -1541.85 781.19 -1539.72 778.57 C-1535.15 772.98 -1530.48 767.47 -1525.81 761.97 C-1524.43 760.35 -1523.06 758.72 -1521.68 757.09 C-1503.49 735.54 -1503.49 735.54 -1494.42 725.54 C-1492.56 723.48 -1490.73 721.41 -1488.91 719.32 C-1484.79 714.6 -1480.6 709.96 -1476.41 705.32 C-1475.68 704.51 -1474.96 703.71 -1474.22 702.88 C-1468.78 696.82 -1463.3 690.82 -1457.8 684.83 C-1456.46 683.37 -1455.12 681.91 -1453.79 680.45 C-1443.4 669.07 -1433 657.69 -1421.97 646.94 C-1420.02 644.95 -1418.22 642.95 -1416.41 640.83 C-1411.75 635.49 -1406.74 630.5 -1401.72 625.5 C-1400.7 624.47 -1399.67 623.45 -1398.65 622.42 C-1396.51 620.29 -1394.38 618.15 -1392.24 616.02 C-1389.52 613.3 -1386.8 610.58 -1384.08 607.86 C-1381.97 605.75 -1379.86 603.63 -1377.74 601.52 C-1376.74 600.52 -1375.74 599.52 -1374.74 598.52 C-1369.68 593.44 -1364.59 588.46 -1359.12 583.81 C-1356.06 581.14 -1353.25 578.22 -1350.41 575.32 C-1346.11 570.97 -1341.79 566.77 -1337.13 562.82 C-1335.3 561.22 -1333.6 559.55 -1331.91 557.82 C-1329.65 555.52 -1327.35 553.35 -1324.91 551.25 C-1320.8 547.72 -1316.86 544.02 -1312.91 540.32 C-1308.43 536.12 -1303.94 531.95 -1299.28 527.94 C-1297.02 525.98 -1294.81 523.96 -1292.59 521.94 C-1289.15 518.83 -1285.64 515.85 -1282.03 512.94 C-1278.02 509.7 -1274.18 506.33 -1270.41 502.82 C-1265.85 498.58 -1261.16 494.59 -1256.32 490.69 C-1252.97 487.96 -1249.68 485.14 -1246.41 482.32 C-1240.48 477.22 -1234.48 472.24 -1228.41 467.32 C-1227.16 466.3 -1225.91 465.28 -1224.66 464.26 C-1217.69 458.57 -1210.7 452.93 -1203.61 447.4 C-1200.69 445.12 -1197.78 442.82 -1194.9 440.49 C-1187.07 434.16 -1179.11 428.05 -1171.03 422.03 C-1165.31 417.76 -1159.65 413.41 -1154.03 409 C-1147.24 403.68 -1140.32 398.59 -1133.26 393.63 C-1129.71 391.11 -1126.18 388.56 -1122.66 386 C-1121.89 385.45 -1121.13 384.9 -1120.35 384.34 C-1116.57 381.61 -1112.8 378.87 -1109.03 376.12 C-1097.33 367.6 -1085.42 359.39 -1073.41 351.32 C-1072.36 350.61 -1072.36 350.61 -1071.29 349.89 C-1050.8 336.14 -1030.28 322.47 -1009.41 309.32 C-1007.5 308.1 -1005.59 306.89 -1003.68 305.68 C-987.67 295.56 -971.39 285.91 -955.07 276.3 C-952.82 274.97 -950.57 273.64 -948.33 272.31 C-886.61 235.77 -822.79 202.39 -757.36 173 C-753.03 171.05 -748.71 169.09 -744.39 167.12 C-696.33 145.25 -647.11 126.09 -597.41 108.32 C-596.54 108.01 -595.67 107.69 -594.78 107.37 C-494.66 71.57 -391.52 43.99 -115.53 4.13 C-114.01 4.01 -114.01 4.01 -112.46 3.89 C-104.78 3.3 -97.09 2.79 -89.41 2.32 C-88.72 2.27 -88.03 2.23 -87.33 2.18 C-58.22 0.35 -29.16 -0.03 0 0 Z " fill="#FEFEFE" transform="translate(4387.405517578125,-0.315673828125)"/>
<path d="M0 0 C0.83 0 1.66 0.01 2.52 0.01 C3.4 0.01 4.28 0.01 5.18 0 C8.17 0 11.15 0.01 14.14 0.01 C16.28 0.01 18.43 0.01 20.57 0.01 C26.5 0.01 32.43 0.01 38.35 0.01 C44.73 0.02 51.11 0.02 57.49 0.02 C68.56 0.02 79.62 0.02 90.68 0.03 C102.29 0.03 113.9 0.04 125.51 0.04 C126.59 0.04 126.59 0.04 127.69 0.04 C131.35 0.04 135.01 0.04 138.67 0.04 C164.62 0.04 190.57 0.05 216.52 0.06 C241.73 0.06 266.95 0.07 292.16 0.08 C292.94 0.08 293.72 0.08 294.52 0.08 C302.32 0.08 310.12 0.08 317.92 0.08 C333.81 0.08 349.7 0.09 365.59 0.09 C366.69 0.09 366.69 0.09 367.81 0.09 C416.63 0.1 465.45 0.11 514.28 0.13 C514.28 0.46 514.28 0.79 514.28 1.13 C512.5 1.37 512.5 1.37 510.68 1.61 C475.27 6.6 442.52 24.25 415.28 47.13 C413.82 48.29 413.82 48.29 412.34 49.46 C409.1 52.18 406.46 55.2 403.84 58.51 C403.4 59.03 402.96 59.54 402.51 60.08 C392.76 72.31 388.05 89.08 382.53 103.51 C381.69 105.67 380.86 107.84 380.02 110 C378.3 114.49 376.57 118.97 374.84 123.46 C371.23 132.85 367.59 142.23 363.95 151.6 C361.98 156.69 360.01 161.77 358.04 166.85 C357.65 167.86 357.26 168.87 356.85 169.91 C354.45 176.11 352.04 182.32 349.64 188.52 C341.55 209.4 333.45 230.27 325.3 251.12 C317.4 271.36 309.55 291.62 301.7 311.88 C298.12 321.11 294.54 330.34 290.96 339.58 C288.98 344.68 287 349.78 285.03 354.88 C284.23 356.92 283.44 358.96 282.65 361.01 C282.06 362.52 282.06 362.52 281.46 364.07 C220.9 520.26 220.9 520.26 219.71 523.32 C218.92 525.36 218.13 527.4 217.34 529.44 C215.36 534.54 213.38 539.64 211.41 544.74 C207.82 554 204.23 563.26 200.64 572.52 C192.55 593.4 184.45 614.27 176.3 635.12 C168.4 655.36 160.55 675.62 152.7 695.88 C149.12 705.11 145.54 714.34 141.96 723.58 C139.98 728.68 138 733.78 136.03 738.88 C135.23 740.92 134.44 742.96 133.65 745.01 C133.26 746.02 132.87 747.03 132.46 748.07 C90.9 855.26 90.9 855.26 89.71 858.32 C88.92 860.36 88.13 862.41 87.34 864.45 C85.37 869.52 83.4 874.59 81.44 879.66 C77.71 889.26 73.99 898.87 70.28 908.47 C68.52 913.03 66.75 917.59 64.99 922.15 C64.14 924.33 63.3 926.51 62.46 928.69 C61.29 931.71 60.13 934.73 58.96 937.74 C58.61 938.64 58.27 939.54 57.91 940.46 C57.59 941.28 57.28 942.11 56.95 942.96 C56.67 943.67 56.39 944.38 56.11 945.12 C55.26 947.17 54.27 949.15 53.28 951.13 C-87.63 951.13 -228.54 951.13 -373.72 951.13 C-372.6 944.38 -372.6 944.38 -371.43 941.32 C-371.16 940.63 -370.9 939.94 -370.63 939.22 C-370.34 938.48 -370.06 937.74 -369.76 936.97 C-369.3 935.78 -369.3 935.78 -368.84 934.56 C-367.83 931.91 -366.81 929.27 -365.79 926.63 C-365.06 924.75 -364.34 922.87 -363.62 920.99 C-357.33 904.59 -350.92 888.24 -344.51 871.89 C-339.4 858.88 -334.34 845.85 -329.29 832.82 C-328.7 831.3 -328.7 831.3 -328.09 829.74 C-326.1 824.6 -324.11 819.45 -322.12 814.3 C-318.55 805.1 -314.98 795.89 -311.41 786.69 C-309.43 781.59 -307.45 776.48 -305.47 771.38 C-304.68 769.34 -303.89 767.3 -303.1 765.26 C-302.71 764.25 -302.32 763.23 -301.91 762.19 C-260.35 655.01 -260.35 655.01 -259.16 651.94 C-258.37 649.9 -257.58 647.86 -256.79 645.82 C-254.81 640.72 -252.83 635.62 -250.86 630.52 C-247.26 621.26 -243.67 612 -240.08 602.74 C-232 581.86 -223.9 560.99 -215.75 540.14 C-207.85 519.9 -200 499.64 -192.15 479.38 C-188.57 470.15 -184.99 460.92 -181.41 451.69 C-179.43 446.58 -177.45 441.48 -175.47 436.38 C-174.68 434.34 -173.89 432.3 -173.1 430.26 C-172.71 429.25 -172.32 428.23 -171.91 427.19 C-111.35 271.01 -111.35 271.01 -110.16 267.94 C-109.37 265.9 -108.58 263.86 -107.79 261.82 C-105.81 256.72 -103.83 251.62 -101.86 246.52 C-98.26 237.26 -94.67 228 -91.08 218.74 C-83 197.86 -74.9 176.99 -66.75 156.14 C-59.26 136.96 -51.82 117.77 -44.38 98.57 C-41.53 91.21 -38.68 83.85 -35.82 76.5 C-34.61 73.37 -33.39 70.23 -32.18 67.1 C-31.38 65.05 -30.58 63 -29.79 60.95 C-25.58 50.11 -21.39 39.27 -17.23 28.42 C-16.88 27.5 -16.52 26.57 -16.16 25.62 C-14.5 21.28 -12.83 16.94 -11.18 12.59 C-10.6 11.07 -10.02 9.56 -9.43 8.04 C-9.17 7.35 -8.91 6.65 -8.64 5.94 C-6.47 0.29 -6.12 0.02 0 0 Z " fill="#FEFEFE" transform="translate(373.7239817082882,886.8689915239811)"/>
<path d="M0 0 C4.54 -0.03 9.08 -0.05 13.62 -0.06 C14.91 -0.07 16.2 -0.08 17.52 -0.09 C18.76 -0.09 20.01 -0.09 21.29 -0.1 C22.43 -0.1 23.57 -0.11 24.75 -0.11 C27.92 -0 30.88 0.45 34 1 C34.23 1.66 34.47 2.32 34.71 3 C37.74 11.56 40.78 20.12 43.81 28.69 C44.06 29.39 44.31 30.09 44.56 30.81 C51.51 50.39 58.48 69.95 65.5 89.5 C72.62 109.31 79.67 129.14 86.7 148.98 C93.27 167.5 99.86 186.01 106.5 204.5 C113.62 224.31 120.67 244.14 127.7 263.98 C134.27 282.5 140.86 301.01 147.5 319.5 C154.38 338.65 161.2 357.82 168 377 C174.92 396.53 181.87 416.06 188.88 435.56 C194.59 451.47 200.28 467.38 205.94 483.31 C212.72 502.4 219.51 521.49 226.34 540.56 C227.18 542.92 228.03 545.29 228.88 547.65 C229.3 548.82 229.72 550 230.15 551.21 C232.76 558.52 235.36 565.83 237.94 573.15 C239.65 577.99 241.37 582.82 243.08 587.66 C243.89 589.94 244.7 592.22 245.5 594.5 C255.2 622.14 266.73 644.29 294 658 C308.48 664.73 323.24 667.78 339 670 C339 670.33 339 670.66 339 671 C140.67 671 -57.66 671 -262 671 C-261.1 666.51 -259.78 662.56 -258.11 658.34 C-257.81 657.57 -257.51 656.81 -257.2 656.02 C-256.2 653.47 -255.19 650.92 -254.19 648.38 C-253.47 646.55 -252.75 644.72 -252.04 642.89 C-250.5 638.97 -248.96 635.05 -247.41 631.13 C-245 625 -242.6 618.87 -240.19 612.73 C-236.84 604.19 -233.49 595.64 -230.14 587.1 C-225.51 575.29 -220.88 563.49 -216.25 551.68 C-214.16 546.37 -212.08 541.06 -210 535.75 C-209.17 533.63 -208.33 531.5 -207.5 529.38 C-202.5 516.63 -202.5 516.63 -201.25 513.44 C-200.42 511.31 -199.58 509.19 -198.75 507.06 C-196.67 501.75 -194.58 496.43 -192.5 491.11 C-188.76 481.6 -185.03 472.08 -181.3 462.57 C-171.75 438.19 -162.18 413.82 -152.61 389.46 C-143.55 366.41 -134.51 343.35 -125.47 320.29 C-121.73 310.76 -117.99 301.23 -114.25 291.69 C-112.17 286.38 -110.08 281.06 -108 275.75 C-107.17 273.62 -106.33 271.5 -105.5 269.38 C-105.09 268.32 -104.67 267.27 -104.25 266.19 C-83 212 -61.75 157.81 -40.5 103.62 C-39.88 102.05 -39.88 102.05 -39.25 100.44 C-38.42 98.31 -37.58 96.18 -36.75 94.06 C-34.68 88.78 -32.61 83.5 -30.54 78.22 C-26.63 68.26 -22.72 58.3 -18.81 48.33 C-16.97 43.63 -15.12 38.92 -13.27 34.21 C-12.39 31.97 -11.51 29.72 -10.63 27.48 C-9.41 24.37 -8.19 21.26 -6.96 18.14 C-6.61 17.23 -6.25 16.32 -5.88 15.38 C-3.87 10.27 -1.91 5.15 0 0 Z " fill="#FEFEFE" transform="translate(1092,1167)"/>
<path d="M0 0 C142.89 0 285.78 0 433 0 C433 0.66 433 1.32 433 2 C432.01 2 431.02 2 430 2 C429.84 2.59 429.67 3.17 429.5 3.78 C427.54 10.55 425.13 17.06 422.53 23.61 C422.09 24.71 421.66 25.82 421.21 26.95 C419.79 30.55 418.36 34.15 416.94 37.75 C415.94 40.27 414.94 42.8 413.95 45.33 C412.43 49.17 410.91 53.02 409.39 56.87 C404.82 68.45 400.28 80.03 395.75 91.62 C395.02 93.5 394.28 95.37 393.55 97.25 C392.1 100.97 390.64 104.69 389.19 108.41 C385.84 116.98 382.48 125.55 379.13 134.11 C377.25 138.92 375.37 143.72 373.49 148.52 C372.93 149.94 372.93 149.94 372.37 151.4 C370.14 157.1 367.91 162.8 365.68 168.5 C357.04 190.58 348.39 212.66 339.73 234.73 C331.55 255.59 323.38 276.46 315.22 297.33 C311.85 305.93 308.49 314.52 305.13 323.12 C303.25 327.91 301.38 332.71 299.5 337.5 C298.75 339.42 298 341.33 297.25 343.25 C296.88 344.2 296.51 345.15 296.12 346.12 C274.75 400.75 274.75 400.75 273.63 403.62 C272.87 405.54 272.12 407.46 271.37 409.38 C269.5 414.16 267.63 418.95 265.75 423.74 C262.37 432.4 258.98 441.05 255.6 449.7 C247.58 470.23 239.54 490.75 231.44 511.25 C231.07 512.19 230.69 513.14 230.31 514.11 C229.27 516.74 228.23 519.38 227.18 522.02 C226.87 522.8 226.56 523.58 226.25 524.39 C224.12 529.77 224.12 529.77 223 532 C222.34 532 221.68 532 221 532 C220.72 531.06 220.44 530.11 220.15 529.14 C196.8 450.08 173.42 371.03 150 292 C146.44 279.99 142.88 267.98 139.32 255.98 C138.32 252.58 137.31 249.18 136.3 245.78 C130.59 226.51 124.89 207.24 119.19 187.96 C117.02 180.63 114.86 173.29 112.68 165.95 C112.47 165.24 112.26 164.53 112.04 163.8 C111.2 160.93 110.35 158.07 109.5 155.21 C106.84 146.25 104.2 137.28 101.57 128.32 C99.75 122.12 97.92 115.93 96.09 109.73 C95.01 106.08 93.94 102.43 92.87 98.77 C86.68 77.42 86.68 77.42 78 57 C77.6 56.18 77.19 55.35 76.78 54.51 C75.79 52.58 74.77 50.69 73.69 48.81 C73.32 48.16 72.95 47.51 72.56 46.84 C60.57 26.31 43.28 10.39 19.94 4.19 C13.36 2.73 6.68 1.84 0 1 C0 0.67 0 0.34 0 0 Z " fill="#FEFEFE" transform="translate(1444,887)"/>
<path d="M0 0 C1.91 2.06 2.95 3.3 3.16 6.13 C3 7.29 3 7.29 2.84 8.46 C2.72 9.34 2.6 10.22 2.48 11.13 C1.61 16.32 0.61 21.47 -0.44 26.62 C-5.96 54.83 -10.04 84.44 6 110 C18.96 128.34 43.1 136.33 64.16 140.79 C64.88 140.94 65.6 141.09 66.34 141.25 C69.98 142.02 73.62 142.76 77.27 143.46 C78.63 143.74 79.98 144.01 81.34 144.29 C82.55 144.52 83.76 144.76 85.01 145 C88.33 146.11 89.35 146.96 91 150 C91.55 154.61 90.41 158.92 87.94 162.81 C81.8 170.06 72.98 171.03 64.09 172.52 C60.51 173.13 56.93 173.78 53.35 174.44 C52.63 174.57 51.92 174.7 51.18 174.83 C8.56 182.7 -28.57 199.02 -60 229 C-60.73 229.69 -61.46 230.38 -62.21 231.09 C-67.63 236.33 -72.35 242.07 -77 248 C-77.44 248.56 -77.89 249.12 -78.34 249.7 C-88.94 263.2 -98.32 277.56 -106.68 292.53 C-107.29 293.61 -107.9 294.69 -108.53 295.8 C-109.68 297.88 -110.82 299.96 -111.94 302.06 C-115.5 308.42 -119.19 313.02 -126 316 C-130.74 316.8 -134.39 316.92 -138.62 314.5 C-142.17 308.05 -139.24 299.74 -137.69 293 C-131.64 265.27 -126.6 234.17 -141.53 208.36 C-157.56 183.76 -188.28 177.23 -215.16 171.54 C-215.82 171.41 -216.47 171.27 -217.15 171.13 C-218.32 170.88 -219.48 170.63 -220.69 170.38 C-221.68 170.18 -222.68 169.98 -223.7 169.77 C-226 169 -226 169 -228 166 C-228.67 160.38 -228.13 156.58 -224.76 151.94 C-218.35 144.89 -208.29 143.85 -199.38 142.56 C-186.02 140.44 -173.01 137.69 -160 134 C-159.12 133.75 -158.24 133.5 -157.33 133.24 C-117.56 121.67 -82.98 98.04 -58.31 64.76 C-56.99 62.98 -55.64 61.22 -54.3 59.46 C-45.56 47.89 -37.81 35.68 -30.6 23.11 C-30.03 22.12 -29.46 21.14 -28.87 20.12 C-27.78 18.22 -26.7 16.3 -25.63 14.38 C-21.93 7.94 -17.99 3.42 -11.62 -0.44 C-7.72 -1.27 -3.81 -1.24 0 0 Z " fill="#FEFEFE" transform="translate(4314,508)"/>
</svg>
