<?xml version="1.0" encoding="UTF-8"?>
<!-- Generator: visioncortex VTracer 0.6.3 -->
<svg version="1.1" xmlns="http://www.w3.org/2000/svg" width="3000" height="3000">
<path d="M0 0 C0.33 0.66 0.66 1.32 1 2 C0.29 3.91 0.29 3.91 -0.91 6.27 C-1.57 7.59 -1.57 7.59 -2.24 8.94 C-2.73 9.89 -3.21 10.84 -3.71 11.82 C-4.2 12.79 -4.69 13.77 -5.2 14.77 C-6.77 17.89 -8.35 21.01 -9.94 24.12 C-11 26.24 -12.07 28.35 -13.13 30.46 C-15.75 35.64 -18.37 40.82 -21 46 C-20.2 45.4 -20.2 45.4 -19.38 44.79 C-18.32 43.99 -18.32 43.99 -17.24 43.18 C-16.19 42.39 -16.19 42.39 -15.12 41.59 C-13.15 40.11 -11.18 38.64 -9.21 37.18 C-0.37 30.58 8.36 23.86 17 17 C17.66 17.33 18.32 17.66 19 18 C11.91 31.15 4.68 44.19 -3 57 C1.45 56.5 1.45 56.5 6 56 C4.08 59.84 2.12 62.3 -0.69 65.5 C-8.26 74.39 -13.47 83.85 -17 95 C-16.67 95.33 -16.34 95.66 -16 96 C-15.48 95.42 -14.95 94.83 -14.41 94.23 C11.13 67.21 52.62 47.89 88 38 C88.99 38 89.98 38 91 38 C89.5 41.45 87.5 43.82 84.94 46.56 C80.07 51.87 75.53 57.4 71 63 C69.34 65.01 67.67 67 66 69 C66.55 68.69 67.1 68.39 67.67 68.07 C70.11 66.73 72.56 65.4 75.02 64.07 C76.43 63.31 77.84 62.54 79.24 61.77 C92.14 54.68 105.09 48.79 119 44 C119.69 43.76 120.38 43.52 121.1 43.28 C131.47 39.76 131.47 39.76 137 40 C135.49 43.48 133.45 45.87 130.88 48.62 C126.34 53.57 122.13 58.71 118 64 C120.16 66.16 124.84 65.69 127.85 65.97 C128.73 66.06 129.62 66.15 130.53 66.24 C133.38 66.52 136.22 66.79 139.06 67.06 C140.99 67.25 142.91 67.44 144.83 67.63 C149.55 68.09 154.28 68.55 159 69 C159 69.66 159 70.32 159 71 C153.39 73.64 147.78 76.28 142 79 C147.35 81.01 152.51 82.8 158 84.26 C159.08 84.55 159.08 84.55 160.19 84.85 C162.46 85.47 164.73 86.08 167 86.69 C168.55 87.11 170.11 87.53 171.66 87.95 C175.44 88.97 179.22 89.99 183 91 C183 91.66 183 92.32 183 93 C182.24 93.19 181.48 93.37 180.69 93.56 C173.52 95.31 166.36 97.06 159.19 98.82 C155.51 99.72 151.82 100.62 148.14 101.52 C144.58 102.38 141.03 103.25 137.48 104.12 C136.12 104.45 134.76 104.79 133.4 105.12 C131.51 105.58 129.61 106.04 127.71 106.51 C126.63 106.77 125.55 107.04 124.44 107.31 C122.07 107.77 122.07 107.77 121 109 C122 109.16 123.01 109.32 124.04 109.48 C137.44 111.71 149 116.28 161 122.55 C165.93 124.94 170.36 125.2 175.79 125.35 C176.54 125.37 177.29 125.4 178.06 125.42 C179.63 125.47 181.2 125.51 182.77 125.56 C185.19 125.63 187.61 125.7 190.02 125.78 C191.55 125.83 193.08 125.87 194.61 125.91 C195.69 125.95 195.69 125.95 196.81 125.99 C198.54 126.03 200.27 126.02 202 126 C203.22 125.01 203.22 125.01 203.03 123.11 C203 122.31 202.96 121.5 202.92 120.67 C202.9 119.79 202.87 118.91 202.84 118 C202.78 116.14 202.7 114.27 202.61 112.41 C202.45 105.62 202.45 105.62 205.2 102.52 C206.12 102.02 207.05 101.52 208 101 C209.22 100.32 209.22 100.32 210.47 99.62 C217.17 96.56 223.8 94.55 231 93 C230.24 93.74 229.47 94.49 228.69 95.25 C224.19 99.56 224.19 99.56 222.69 105.38 C222.84 108.95 222.84 108.95 224.06 111.94 C225.28 115.92 225.45 119.11 224 123 C218.31 131.25 208.05 136.65 198.36 138.7 C192.6 139.43 186.79 139.71 181 140 C193.84 146.91 205.54 150.67 220.06 146.5 C226.51 144.33 232.72 141.63 238.96 138.94 C257.49 131.03 257.49 131.03 263 133 C262.49 133.81 261.99 134.62 261.47 135.45 C260.49 137.05 260.49 137.05 259.5 138.69 C258.85 139.74 258.2 140.8 257.53 141.89 C256.01 144.98 255.65 146.63 256 150 C261.38 150.21 266.4 150.02 271.69 149 C280.77 147.37 291.93 145.78 300 151 C309.58 158.73 309.58 158.73 311 163 C309.95 162.67 308.9 162.34 307.81 162 C299.51 159.97 290.71 159.71 282.98 163.66 C280.19 165.55 278.03 167.87 275.73 170.32 C271.28 174.65 266.65 176.24 260.5 176.5 C254.46 176.2 249.98 175.1 245.69 170.63 C243.75 168.48 241.84 166.33 240.03 164.07 C237.78 161.37 236.5 160.09 232.99 159.47 C229.67 160.06 227.62 160.99 224.75 162.75 C223.72 163.38 222.69 164.01 221.62 164.66 C218.89 166.4 216.19 168.21 213.5 170.03 C212.32 170.83 212.32 170.83 211.12 171.64 C209.57 172.69 208.03 173.75 206.5 174.82 C199.55 179.58 193.64 182.45 185.06 182.25 C183.86 182.22 182.67 182.2 181.43 182.17 C177.25 181.96 173.15 181.57 169 181 C169.99 181.4 170.99 181.8 172.01 182.21 C181.72 186.24 190.42 190.93 199 197 C199.7 197.49 200.39 197.98 201.11 198.48 C205.97 202.27 209.25 207.27 212.87 212.2 C215.43 215.56 217.36 217.86 221 220 C224.56 220.33 224.56 220.33 228 219 C228.89 218.15 229.77 217.31 230.69 216.44 C233.59 213.75 235.9 213.61 239.81 213.56 C245.09 213.79 249.93 214.5 255 216 C255.33 216.66 255.66 217.32 256 218 C255.25 218.13 254.5 218.27 253.73 218.4 C252.75 218.58 251.76 218.76 250.75 218.94 C249.78 219.11 248.8 219.29 247.8 219.46 C245.5 219.9 243.26 220.4 241 221 C239.92 224.53 239.8 227.88 239.75 231.56 C239.72 232.7 239.7 233.83 239.67 235 C240.05 238.41 240.44 238.9 243 241 C249.7 244.28 257.25 244.88 264.56 245.69 C265.67 245.82 266.77 245.95 267.91 246.08 C270.6 246.4 273.3 246.7 276 247 C274.11 248.89 272.8 249.72 270.45 250.88 C269.75 251.22 269.05 251.57 268.33 251.92 C267.24 252.46 267.24 252.46 266.12 253 C265.4 253.36 264.68 253.71 263.94 254.08 C262.59 254.74 261.24 255.41 259.89 256.07 C259.27 256.38 258.64 256.68 258 257 C256.92 257.49 256.92 257.49 255.81 257.98 C253.79 258.86 253.79 258.86 253.25 261.12 C253.13 262.05 253.13 262.05 253 263 C260.52 265.89 268.03 266.14 276 266 C275.8 266.68 275.59 267.35 275.38 268.05 C275.11 268.94 274.84 269.83 274.56 270.75 C274.3 271.63 274.03 272.51 273.75 273.42 C272.58 277.45 271.84 280.9 271.81 285.12 C271.79 286.43 271.79 286.43 271.77 287.76 C271.78 290.2 271.78 290.2 274 292 C282.93 293.5 292.7 290.71 301.5 289.12 C303.06 288.85 304.61 288.58 306.17 288.31 C313.11 287.09 320.05 285.85 326.94 284.33 C329.32 283.95 331.6 283.95 334 284 C330.92 286.06 328.41 286.93 324.88 288.03 C323.65 288.42 322.41 288.82 321.13 289.22 C320.48 289.43 319.82 289.64 319.15 289.85 C308.93 293.12 298.9 296.57 289.19 301.19 C288.38 301.57 287.57 301.95 286.74 302.34 C278.06 306.62 270.95 312.71 264.19 319.56 C263.64 320.1 263.1 320.64 262.53 321.19 C259.18 324.56 256.51 327.96 254 332 C252.97 328.9 253.03 327.59 253.44 324.44 C254.62 313.72 255.11 301.4 249 292 C244.75 287.93 240.43 288.46 234.82 288.57 C226.82 289.47 219.77 292.77 213 297 C213.7 297.34 214.4 297.68 215.12 298.03 C227.66 304.44 234.08 313.51 241.66 325.05 C242.11 325.74 242.56 326.43 243.03 327.13 C244 329 244 329 244 332 C243.01 331.86 242.02 331.71 241 331.56 C239.67 331.37 238.33 331.19 237 331 C235.7 330.81 234.4 330.63 233.06 330.44 C226.09 329.6 219.86 329.94 213 331.62 C212.28 331.8 211.55 331.97 210.81 332.15 C204.03 333.84 197.58 336.24 191.1 338.83 C188 340 188 340 186 340 C196 350.64 208.93 357.95 221.21 365.64 C221.86 366.05 222.51 366.46 223.18 366.88 C224.41 367.65 225.65 368.42 226.89 369.18 C228.29 370.07 229.65 371.03 231 372 C231 372.66 231 373.32 231 374 C223.74 376.31 216.48 378.62 209 381 C211.26 383.23 211.26 383.23 213.56 385.5 C217.91 389.85 222.04 394.3 226 399 C226.51 399.59 227.02 400.18 227.54 400.79 C231 404.86 231 404.86 231 406 C224.4 406.33 217.8 406.66 211 407 C211.66 409.97 212.32 412.94 213 416 C208.71 414.35 204.42 412.7 200 411 C200.93 411.86 201.86 412.72 202.82 413.61 C211.41 421.55 219.79 429.67 228 438 C224.55 439.15 223.67 438.82 220.28 437.75 C219.33 437.46 218.38 437.16 217.39 436.85 C215.85 436.36 215.85 436.36 214.28 435.85 C213.22 435.52 212.16 435.19 211.08 434.85 C207.69 433.78 204.32 432.7 200.94 431.62 C198.66 430.91 196.37 430.19 194.09 429.47 C189.92 428.15 185.75 426.84 181.59 425.51 C180.75 425.24 179.91 424.97 179.04 424.7 C177 424 177 424 175 423 C183.22 447 197.75 466.6 221 478 C213.86 482.76 203.3 481.26 195.19 479.79 C181.67 476.46 171.35 469.05 161 460 C161 477.49 161 494.98 161 513 C158.4 510.4 157.6 507.5 156.43 504.09 C156.19 503.41 155.96 502.73 155.71 502.03 C154.95 499.86 154.19 497.68 153.44 495.5 C152.68 493.32 151.92 491.15 151.15 488.97 C150.68 487.61 150.21 486.26 149.74 484.9 C148.52 481.39 148.52 481.39 147 478 C145.73 479.13 144.49 480.28 143.25 481.44 C142.21 482.39 142.21 482.39 141.14 483.37 C135.28 490.57 134.17 498.55 133.25 507.56 C133.06 509.22 133.06 509.22 132.87 510.91 C132.57 513.6 132.28 516.3 132 519 C119.82 513.36 114.38 497.68 110 486 C109.67 494.91 109.34 503.82 109 513 C108.34 513 107.68 513 107 513 C105.83 509.9 104.66 506.79 103.5 503.69 C103.17 502.81 102.83 501.93 102.49 501.02 C102.17 500.17 101.86 499.32 101.53 498.45 C101.24 497.67 100.94 496.89 100.64 496.08 C100 494 100 494 100 491 C99.34 491 98.68 491 98 491 C98.38 509.03 110.14 521.37 122.25 533.56 C122.92 534.24 123.6 534.92 124.29 535.62 C127.97 539.25 131.58 542.31 136 545 C136.26 544.12 136.53 543.25 136.8 542.34 C139.5 534.81 144.62 525.8 152 522 C157.68 521.79 162.15 524.29 167 527 C168.08 525.98 168.08 525.98 169.19 524.94 C172 523 172 523 174.5 523.19 C175.33 523.46 176.15 523.72 177 524 C182.92 525.6 186.7 523.75 192 521 C198.98 516.53 205.36 511.16 211.85 506.02 C227.55 493.63 227.55 493.63 234.8 493.74 C238.61 494.19 241.58 495.88 244.88 497.75 C245.59 498.14 246.31 498.53 247.06 498.94 C253.66 502.61 259.91 506.83 266.02 511.28 C270.01 514.25 270.01 514.25 274.76 514.86 C275.5 514.57 276.24 514.29 277 514 C289.84 512.52 299.23 519.13 309.02 526.51 C319.72 534.56 330.5 542.3 342.15 548.94 C344.04 550.02 345.91 551.14 347.79 552.27 C362.23 560.83 377.09 567.07 393.73 569.63 C411.33 572.47 428.18 577.13 445 583 C446.49 583.52 446.49 583.52 448.02 584.05 C471.51 592.3 493.75 602.74 515.17 615.43 C516.1 615.95 517.04 616.47 518 617 C518.7 617.4 519.4 617.81 520.12 618.22 C526.68 621.8 532.72 623.14 540.09 624.06 C541.81 624.3 541.81 624.3 543.56 624.54 C547.21 625.05 550.85 625.52 554.5 626 C559.26 626.64 564.02 627.28 568.78 627.94 C570.55 628.18 570.55 628.18 572.35 628.43 C589.03 630.78 605.8 633.73 622.06 638.19 C623.11 638.47 624.16 638.76 625.24 639.05 C639.84 643.2 654.92 648.18 667.56 656.75 C671.82 659.72 671.82 659.72 676.94 659.5 C677.54 659.25 678.14 659 678.77 658.74 C681.93 657.69 684.87 657.73 688.19 657.69 C689.36 657.67 690.53 657.65 691.73 657.64 C695.48 658.05 697.13 658.55 700 661 C704.53 668.16 706.3 676.45 708.44 684.56 C708.65 685.35 708.86 686.14 709.08 686.96 C721.82 734.89 732.04 783.43 742 832 C742.26 833.27 742.52 834.53 742.79 835.84 C752.95 885.41 761.5 935.25 769.59 985.2 C769.79 986.43 769.99 987.66 770.19 988.93 C772.2 1001.37 774.21 1013.81 776.2 1026.24 C776.95 1030.95 777.7 1035.65 778.46 1040.35 C778.81 1042.54 779.16 1044.72 779.5 1046.9 C781.33 1058.41 783.28 1069.89 785.5 1081.33 C785.69 1082.34 785.88 1083.34 786.07 1084.38 C788 1094.08 790.1 1104.41 798.23 1110.74 C817 1122.48 837.06 1130.26 858.46 1135.77 C859.38 1136.01 860.3 1136.24 861.25 1136.49 C865.86 1137.67 870.48 1138.82 875.1 1139.93 C892.08 1144.09 906.6 1149.41 916.26 1164.97 C924.05 1178.19 928.55 1194.61 926 1210 C924.52 1213.04 922.77 1215.46 920.73 1218.15 C918.65 1221.58 918.1 1224.79 917.56 1228.69 C915.61 1242.13 908.57 1254.43 899 1264 C896.56 1263.88 896.56 1263.88 894 1263 C892.34 1260.95 892.34 1260.95 891 1259 C890.31 1259.97 889.62 1260.93 888.91 1261.93 C882.76 1270.48 876.46 1278.54 869 1286 C864.95 1286.34 863.45 1286.3 860 1284 C859.39 1284.99 858.77 1285.97 858.14 1286.99 C857.32 1288.29 856.5 1289.58 855.69 1290.88 C855.28 1291.53 854.88 1292.18 854.46 1292.85 C852.5 1295.94 851.09 1297.94 848 1300 C838.53 1301.26 822.38 1303.06 813.84 1298.15 C810.92 1295.62 808.52 1292.93 806 1290 C803.64 1288 801.16 1286.16 798.69 1284.31 C790.89 1278.21 790.89 1278.21 787.62 1275.31 C787.1 1274.85 786.58 1274.4 786.04 1273.93 C783.66 1269.51 784.76 1264.35 786.09 1259.75 C786.55 1258.31 787.02 1256.87 787.5 1255.44 C789.26 1250.14 790.47 1245.67 790 1240 C787.61 1236.02 785.44 1234.27 781 1233 C776.67 1232.12 772.47 1231.85 768.07 1231.71 C752.44 1231.19 736.66 1229.52 724.69 1218.31 C716.46 1209.3 711.05 1198.02 706 1187 C705.69 1186.38 705.38 1185.75 705.06 1185.11 C702.42 1179.26 703.16 1174.45 704.25 1168.25 C709.15 1138.07 709.29 1105.14 704 1075 C703.8 1073.86 703.6 1072.72 703.4 1071.55 C694.89 1024.37 676.23 980.72 655 938 C654.63 937.24 654.26 936.47 653.87 935.68 C649.41 926.59 643.63 920.2 636.4 913.31 C631.8 908.9 627.88 904.04 624 899 C623.26 898.07 622.53 897.14 621.77 896.18 C603.99 873.23 595.64 849.59 595.97 820.39 C595.99 818.17 596 815.95 596.01 813.72 C596.03 810.27 596.06 806.82 596.1 803.37 C597.05 775.71 597.05 775.71 586.81 750.62 C575.4 739.97 561.95 738.55 547 739 C542.22 739.37 537.46 739.9 532.69 740.44 C503.43 743.53 474.62 742.92 445.31 741 C444.05 740.92 442.78 740.83 441.48 740.75 C436.57 740.41 431.82 740.06 427 739 C426.89 739.6 426.78 740.19 426.66 740.81 C425.62 746.23 424.37 751.55 422.94 756.89 C420.21 767.22 418.03 777.59 416.25 788.12 C416.05 789.28 415.85 790.43 415.65 791.62 C412.64 810.16 411.69 828.7 411.73 847.46 C411.73 849.52 411.73 851.58 411.73 853.64 C411.73 857.91 411.73 862.17 411.74 866.44 C411.75 871.89 411.74 877.34 411.73 882.8 C411.72 887.03 411.73 891.26 411.73 895.49 C411.73 897.5 411.73 899.51 411.73 901.52 C411.72 904.32 411.73 907.12 411.74 909.93 C411.74 910.74 411.73 911.56 411.73 912.41 C411.78 919.32 413.03 924.92 416.73 930.87 C417.55 932.21 417.55 932.21 418.39 933.57 C419.28 934.99 419.28 934.99 420.19 936.44 C420.81 937.44 421.43 938.45 422.07 939.48 C424.04 942.66 426.02 945.83 428 949 C429.25 951 430.49 953 431.73 955 C436.75 963.05 441.79 971.09 446.86 979.11 C477.54 1027.74 477.54 1027.74 482.81 1051.69 C481.41 1057.4 477.04 1060.9 473 1065 C471.45 1066.72 469.91 1068.45 468.38 1070.19 C465.25 1073.67 462.03 1077 458.69 1080.28 C456.22 1082.8 453.94 1085.47 451.64 1088.13 C449.53 1090.54 447.3 1092.77 445 1095 C446.63 1099.05 449.52 1101.84 452.5 1104.94 C456.75 1109.46 460.84 1114.06 464.69 1118.94 C465.5 1119.96 466.3 1120.98 467.14 1122.03 C469.13 1125.21 469.9 1127.25 470 1131 C469 1133.12 469 1133.12 467.56 1134.88 C467.09 1135.47 466.62 1136.07 466.13 1136.68 C465.76 1137.12 465.38 1137.55 465 1138 C465.82 1138.74 466.64 1139.47 467.48 1140.23 C468.57 1141.22 469.66 1142.2 470.75 1143.19 C471.29 1143.67 471.83 1144.15 472.38 1144.65 C478.35 1150.07 482.31 1155 484 1163 C484.17 1170.97 481.62 1178.63 479.35 1186.18 C478.76 1188.16 478.17 1190.16 477.59 1192.15 C474.94 1201.17 472.03 1210.1 469 1219 C470.13 1219.08 471.27 1219.16 472.44 1219.25 C478.57 1220.03 483.94 1222.09 488.5 1226.31 C491.03 1230.85 491.41 1235.13 490.14 1240.12 C489.72 1241.56 489.27 1243 488.81 1244.44 C488.58 1245.19 488.36 1245.95 488.12 1246.72 C486.94 1250.51 485.66 1253.94 483.62 1257.38 C481.96 1261.08 481.87 1262.11 482.3 1265.96 C482.4 1266.93 482.51 1267.91 482.62 1268.91 C483.38 1275.08 484.2 1281.24 485.07 1287.39 C486.44 1297.71 486.44 1297.71 485 1303 C483.36 1305.11 483.36 1305.11 481.31 1306.75 C480.32 1307.58 480.32 1307.58 479.3 1308.42 C476.65 1310.24 473.88 1311.59 471 1313 C470.99 1313.83 470.97 1314.66 470.96 1315.52 C469.75 1377.91 463.88 1446.89 416.65 1492.57 C411.98 1497 407.1 1501.08 402 1505 C400.75 1505.98 399.5 1506.96 398.25 1507.94 C384.05 1519 369.36 1529.32 354.19 1539 C353.28 1539.58 352.38 1540.16 351.44 1540.76 C346.68 1543.77 341.88 1546.66 336.95 1549.39 C324.5 1556.4 316.14 1563.14 308.28 1575.1 C306.49 1577.76 304.49 1580.22 302.44 1582.69 C301.73 1583.54 301.02 1584.39 300.3 1585.27 C294.59 1592.04 288.81 1598.75 283.02 1605.44 C280 1608.95 276.99 1612.47 274 1616 C273.46 1616.64 272.91 1617.27 272.35 1617.93 C261.35 1630.89 253.34 1644.34 245.56 1659.41 C239.55 1670.96 232.79 1682.09 226.06 1693.23 C225 1695 223.94 1696.77 222.88 1698.53 C210.64 1718.93 197.96 1739.01 184.83 1758.86 C184.19 1759.82 183.55 1760.79 182.89 1761.79 C179.67 1766.66 176.44 1771.53 173.2 1776.39 C163.25 1791.38 154.09 1806.43 147 1823 C146.51 1824.09 146.51 1824.09 146 1825.2 C143.92 1829.93 141.83 1834.75 142 1840 C144.06 1844.68 146.87 1847.86 150.46 1851.43 C152.49 1853.5 154.31 1855.72 156.14 1857.97 C158.38 1860.69 160.69 1863.34 163 1866 C163.46 1866.54 163.92 1867.07 164.39 1867.62 C165.73 1869.17 167.08 1870.71 168.44 1872.25 C169.22 1873.14 170 1874.03 170.81 1874.95 C173.03 1877.02 174.02 1877.78 177 1878 C178.89 1877.54 178.89 1877.54 180.81 1877.06 C192.85 1874.19 204.47 1875.54 215.39 1881.25 C237.01 1894.55 252.55 1922.06 265.76 1943.05 C266.95 1944.92 268.18 1946.76 269.43 1948.6 C273.32 1954.51 275.91 1958.87 275.67 1966.07 C275.78 1966.71 275.89 1967.35 276 1968 C277.73 1969.05 277.73 1969.05 280 1970 C282 1971.59 283.94 1973.2 285.88 1974.88 C286.44 1975.36 287.01 1975.84 287.59 1976.34 C288.79 1977.37 289.98 1978.4 291.18 1979.43 C292.96 1980.97 294.75 1982.49 296.54 1984.01 C303.19 1989.65 309.7 1995.4 316.09 2001.33 C318.34 2003.39 320.61 2005.41 322.91 2007.41 C333.31 2016.48 343.21 2026.1 353 2035.82 C354.39 2037.21 355.8 2038.59 357.2 2039.97 C363.24 2046 368.69 2052.33 374 2059 C375.35 2060.63 376.71 2062.25 378.06 2063.88 C394.74 2084.89 404.16 2110 402 2137 C393.65 2186.93 352.35 2232.7 312.88 2261.17 C306.55 2265.68 300.06 2269.92 293.51 2274.11 C264.95 2290.28 264.95 2290.28 247 2316 C246.24 2319.86 245.68 2323.73 245.12 2327.62 C241.28 2352.19 230.57 2367.48 211.94 2383.34 C205.82 2388.57 199.93 2394.06 194 2399.5 C192 2401.33 190 2403.17 188 2405 C187.14 2405.79 186.29 2406.57 185.4 2407.38 C180.36 2411.97 175.19 2416.36 169.88 2420.64 C167.43 2422.65 165.01 2424.71 162.61 2426.79 C148.93 2438.59 134.26 2449.33 119 2459 C118.33 2459.43 117.66 2459.85 116.97 2460.29 C81.36 2482.81 40.37 2505.57 -2 2511 C-2.86 2511.19 -3.71 2511.39 -4.6 2511.59 C-8.5 2512.14 -11.44 2512.11 -14.75 2509.75 C-19.21 2505.86 -23.12 2501.46 -27 2497 C-28.07 2495.8 -28.07 2495.8 -29.16 2494.57 C-30.26 2493.32 -31.35 2492.06 -32.43 2490.79 C-34.2 2488.77 -36.08 2486.89 -38 2485 C-41.88 2481.17 -45.48 2477.16 -49 2473 C-49.81 2472.09 -50.63 2471.17 -51.46 2470.23 C-54.23 2466.9 -56.07 2463.36 -57.88 2459.44 C-58.21 2458.71 -58.55 2457.98 -58.9 2457.23 C-69.29 2434.12 -77.61 2406.94 -68.32 2382.18 C-62.55 2367.38 -55.02 2354.48 -44 2343 C-43.03 2341.82 -42.07 2340.63 -41.12 2339.44 C-28.07 2324.26 -8.63 2314.62 8.79 2305.44 C29.58 2294.48 54.8 2281.04 62.63 2257.32 C64.37 2251.3 64.43 2245.52 64.44 2239.29 C64.74 2225.42 70 2212.91 75.31 2200.31 C91.58 2165.26 91.58 2165.26 91 2128 C89.82 2125.8 88.53 2123.99 87 2122 C85.51 2122.49 85.51 2122.49 84 2123 C76.16 2124.17 69.5 2120.31 63.3 2115.75 C59.01 2112.37 54.98 2108.73 51 2105 C50.44 2104.47 49.87 2103.95 49.29 2103.41 C32.03 2087.16 12.79 2064.84 11.66 2040.08 C11.49 2029.76 11.81 2020.6 16 2011 C16.51 2009.82 17.03 2008.64 17.55 2007.43 C22.31 1997.12 28.47 1987.64 34.63 1978.13 C35.19 1977.27 35.74 1976.41 36.31 1975.53 C37.45 1973.83 38.62 1972.16 39.83 1970.52 C40.4 1969.74 40.97 1968.96 41.55 1968.15 C42.07 1967.47 42.59 1966.79 43.12 1966.09 C44.27 1963.96 44.27 1963.96 43.33 1961.48 C42.1 1959.19 40.85 1957.26 39.23 1955.24 C38.68 1954.54 38.13 1953.85 37.56 1953.13 C36.96 1952.38 36.36 1951.64 35.75 1950.88 C30.71 1944.5 25.79 1938.07 21 1931.5 C16.43 1925.25 11.78 1919.09 7 1913 C2.22 1906.91 -2.43 1900.75 -7 1894.5 C-11.81 1887.93 -16.69 1881.43 -21.69 1875 C-22.28 1874.24 -22.86 1873.48 -23.47 1872.7 C-24.02 1871.99 -24.57 1871.29 -25.14 1870.56 C-25.62 1869.95 -26.1 1869.33 -26.6 1868.69 C-29.59 1865.09 -32.64 1862.87 -36.68 1860.45 C-37.24 1860.11 -37.8 1859.77 -38.38 1859.42 C-39.58 1858.7 -40.79 1857.97 -41.99 1857.25 C-45.19 1855.34 -48.38 1853.41 -51.57 1851.49 C-52.21 1851.1 -52.84 1850.72 -53.5 1850.32 C-58.97 1847.03 -64.4 1843.68 -69.81 1840.31 C-77.98 1835.24 -86.19 1830.23 -94.41 1825.23 C-100.86 1821.32 -107.28 1817.36 -113.69 1813.38 C-120.81 1808.96 -127.95 1804.58 -135.12 1800.25 C-135.97 1799.74 -136.82 1799.22 -137.69 1798.69 C-138.48 1798.22 -139.26 1797.75 -140.07 1797.27 C-140.76 1796.85 -141.45 1796.44 -142.16 1796.01 C-146.28 1793.75 -150.4 1793.37 -155 1794 C-168.46 1800.99 -173.64 1820.55 -179.17 1833.78 C-185.45 1848.81 -191.89 1863.75 -198.83 1878.49 C-199.97 1880.94 -201.09 1883.4 -202.21 1885.86 C-208.07 1898.66 -214.88 1910.86 -222 1923 C-222.5 1923.85 -223 1924.7 -223.51 1925.58 C-229.16 1935.17 -235.08 1944.27 -242 1953 C-242.64 1953.84 -243.29 1954.67 -243.95 1955.53 C-255.34 1970.13 -268.42 1983.59 -283 1995 C-283.97 1995.78 -284.95 1996.56 -285.95 1997.36 C-311.26 2017.3 -339.96 2032.68 -368.06 2048.25 C-396.25 2063.88 -424.48 2079.62 -451 2098 C-451.66 2098.46 -452.32 2098.92 -453.01 2099.39 C-476.55 2115.72 -499.22 2133.13 -520.3 2152.55 C-521.76 2153.87 -523.21 2155.18 -524.7 2156.46 C-530.32 2161.28 -535.6 2166.42 -540.84 2171.65 C-542.32 2173.13 -543.81 2174.61 -545.31 2176.08 C-546.26 2177.04 -547.22 2177.99 -548.18 2178.95 C-549.03 2179.8 -549.89 2180.65 -550.77 2181.52 C-555.39 2186.65 -556.43 2190.74 -556.88 2197.5 C-559.11 2223.01 -566.78 2248.02 -587 2265 C-596.05 2271.63 -607.95 2279.08 -619.56 2277.81 C-623 2277 -623 2277 -625.03 2276.32 C-627.32 2275.71 -627.32 2275.71 -629.97 2278.04 C-631.16 2279.08 -632.34 2280.13 -633.5 2281.19 C-634.46 2282.04 -634.46 2282.04 -635.44 2282.92 C-648.16 2294.41 -660.47 2306.46 -671 2320 C-673.78 2323.36 -676.61 2326.68 -679.45 2330 C-680.93 2331.75 -682.41 2333.51 -683.87 2335.29 C-695.91 2349.77 -714.01 2361.21 -733 2363 C-753.02 2364.37 -770.13 2358.55 -785.33 2345.32 C-807.56 2325.32 -820.97 2298.19 -833.13 2271.34 C-836.33 2264.33 -839.7 2257.51 -843.66 2250.89 C-844.01 2250.3 -844.37 2249.7 -844.73 2249.09 C-861.21 2222.22 -888.76 2211.48 -918.18 2204.21 C-931.71 2200.68 -942.06 2194.78 -952 2185 C-953.01 2184.11 -953.01 2184.11 -954.04 2183.21 C-971.93 2167 -981.07 2139.49 -986.31 2116.62 C-986.47 2115.94 -986.63 2115.25 -986.8 2114.54 C-994.46 2078.82 -990.29 2032.44 -971.02 2000.75 C-969.13 1998.04 -967.15 1995.51 -965 1993 C-964.34 1992.23 -963.67 1991.45 -962.99 1990.65 C-947.86 1974.35 -924.08 1964.84 -902 1964 C-885.89 1963.42 -864.92 1963.8 -852 1975 C-849.7 1978.18 -848.05 1981.59 -846.38 1985.12 C-845.34 1987.2 -844.31 1989.28 -843.27 1991.35 C-842.74 1992.44 -842.2 1993.53 -841.65 1994.65 C-838.86 2000.3 -835.96 2005.9 -833.06 2011.5 C-832.48 2012.63 -831.89 2013.76 -831.29 2014.93 C-825.94 2025.24 -820.25 2035.33 -814.47 2045.41 C-812.66 2048.6 -810.9 2051.81 -809.15 2055.03 C-798.42 2074.67 -787.87 2091.98 -769.01 2104.64 C-767.67 2105.55 -766.34 2106.47 -765.02 2107.41 C-758.34 2112.11 -752.77 2115.88 -744.38 2114.54 C-741.21 2113.83 -738.12 2112.91 -735 2112 C-733.68 2112 -732.36 2112 -731 2112 C-730.92 2111.2 -730.83 2110.39 -730.75 2109.57 C-727.39 2093.54 -716.52 2076.81 -702.97 2067.77 C-687.24 2058.4 -664.09 2047.95 -645 2051 C-631.05 2054.57 -620.31 2062.21 -610 2072 C-599.76 2064.42 -589.8 2056.49 -579.94 2048.44 C-574.1 2043.67 -568.2 2039.03 -562.21 2034.46 C-558.78 2031.84 -555.39 2029.17 -552 2026.5 C-547.08 2022.63 -542.14 2018.79 -537.18 2014.98 C-531.62 2010.72 -526.11 2006.41 -520.59 2002.11 C-516.35 1998.8 -512.08 1995.56 -507.75 1992.38 C-498.09 1985.18 -489.13 1977.1 -480.23 1969.01 C-478.18 1967.16 -476.1 1965.36 -474 1963.56 C-469.94 1960.03 -466.2 1956.21 -462.42 1952.39 C-460.44 1950.43 -458.44 1948.61 -456.31 1946.81 C-447.54 1939.29 -439.25 1930.85 -431.8 1922.02 C-429.31 1919.23 -426.66 1916.63 -424 1914 C-420.16 1910.2 -416.46 1906.36 -412.96 1902.24 C-411.35 1900.39 -409.69 1898.6 -408 1896.82 C-401.63 1890.09 -395.69 1883.32 -390.28 1875.77 C-388.8 1873.72 -387.3 1871.69 -385.79 1869.66 C-351.67 1823.6 -321.7 1776.18 -294.91 1725.47 C-292.89 1721.66 -290.84 1717.87 -288.77 1714.09 C-287.34 1711.47 -285.93 1708.84 -284.52 1706.21 C-283.85 1704.96 -283.17 1703.71 -282.48 1702.47 C-278.44 1695.2 -275.85 1690.18 -278 1682 C-279.62 1674.09 -280.37 1666.57 -280.38 1658.5 C-280.4 1657.45 -280.42 1656.4 -280.45 1655.32 C-280.48 1646.74 -279.06 1638.57 -273.67 1631.63 C-270.71 1628.71 -267.67 1626.29 -264.25 1623.94 C-263.64 1623.51 -263.03 1623.08 -262.4 1622.64 C-257.77 1619.42 -253.01 1616.57 -248 1614 C-252.54 1608.56 -257.35 1603.5 -262.38 1598.5 C-263.09 1597.78 -263.81 1597.06 -264.55 1596.32 C-269.2 1591.67 -274.01 1587.28 -279 1583 C-280.19 1581.95 -281.38 1580.91 -282.57 1579.86 C-289.19 1574.05 -295.9 1568.42 -302.86 1563.03 C-307.45 1559.46 -311.9 1555.76 -316.31 1551.98 C-319.68 1549.1 -323.1 1546.32 -326.56 1543.56 C-359.92 1516.28 -369.41 1479.74 -374.25 1438.44 C-374.37 1437.37 -374.37 1437.37 -374.5 1436.29 C-375.05 1431.53 -375.54 1426.77 -376 1422 C-376.11 1420.91 -376.21 1419.82 -376.32 1418.69 C-377.35 1406.18 -377.19 1393.61 -377.19 1381.06 C-377.19 1378.35 -377.19 1375.65 -377.21 1372.94 C-377.42 1330.05 -377.42 1330.05 -367 1318 C-364.37 1315.96 -364.37 1315.96 -361.43 1314.01 C-359.84 1312.95 -359.84 1312.95 -358.21 1311.87 C-357.11 1311.15 -356.01 1310.43 -354.88 1309.69 C-353.75 1308.94 -352.63 1308.19 -351.51 1307.44 C-343.27 1302 -343.27 1302 -341 1302 C-341.28 1300.94 -341.55 1299.88 -341.84 1298.78 C-342.21 1297.35 -342.57 1295.93 -342.94 1294.5 C-343.12 1293.8 -343.3 1293.11 -343.49 1292.39 C-348.39 1273.16 -347.59 1253.36 -337.82 1235.88 C-335.04 1231.47 -332.45 1227.93 -327.94 1225.25 C-327.27 1224.84 -326.59 1224.44 -325.9 1224.02 C-317.05 1219.29 -305.33 1221.85 -296.2 1224.54 C-284.47 1228.47 -272.7 1233.42 -262.25 1240.1 C-258.99 1241.4 -257.37 1241.02 -254 1240 C-250.96 1238.39 -248.12 1236.52 -245.25 1234.62 C-243.56 1233.54 -241.86 1232.46 -240.17 1231.38 C-236.8 1229.19 -233.46 1226.96 -230.14 1224.69 C-228.59 1223.67 -227.05 1222.65 -225.5 1221.62 C-224.81 1221.13 -224.12 1220.64 -223.4 1220.13 C-219.31 1217.47 -216.74 1216.71 -211.91 1217.71 C-210.94 1217.91 -209.97 1218.11 -208.97 1218.32 C-204.3 1219.39 -199.66 1220.56 -195.03 1221.81 C-194 1222.08 -192.96 1222.36 -191.89 1222.64 C-188.5 1223.55 -185.11 1224.45 -181.71 1225.36 C-179.33 1226 -176.95 1226.63 -174.56 1227.27 C-169.57 1228.6 -164.58 1229.93 -159.59 1231.27 C-153.24 1232.96 -146.89 1234.66 -140.54 1236.35 C-134.43 1237.98 -128.32 1239.61 -122.21 1241.24 C-120.5 1241.7 -120.5 1241.7 -118.75 1242.16 C-116.53 1242.76 -114.31 1243.35 -112.08 1243.94 C-109.97 1244.51 -107.87 1245.07 -105.76 1245.63 C-101.03 1246.89 -96.33 1248.18 -91.64 1249.6 C-90.82 1249.85 -90 1250.09 -89.15 1250.34 C-87.64 1250.8 -86.14 1251.26 -84.64 1251.74 C-78.87 1253.46 -75.55 1252.34 -70.38 1249.63 C-69.52 1249.11 -68.66 1248.6 -67.78 1248.07 C-66.83 1247.5 -65.88 1246.93 -64.9 1246.35 C-63.92 1245.76 -62.94 1245.17 -61.94 1244.56 C-60.47 1243.68 -60.47 1243.68 -58.97 1242.79 C-53.7 1239.7 -53.7 1239.7 -48.68 1236.25 C-42.71 1233.47 -35.34 1236.65 -29.41 1238.65 C-28.18 1239.05 -28.18 1239.05 -26.93 1239.47 C-24.23 1240.36 -21.54 1241.26 -18.85 1242.16 C-16.95 1242.79 -15.04 1243.42 -13.14 1244.05 C-8.13 1245.71 -3.12 1247.38 1.89 1249.05 C6.89 1250.71 11.9 1252.38 16.91 1254.04 C17.89 1254.36 18.86 1254.68 19.86 1255.02 C24.68 1256.61 29.49 1258.21 34.31 1259.8 C35.23 1260.11 36.15 1260.41 37.1 1260.72 C38.9 1261.32 40.7 1261.92 42.51 1262.51 C47.12 1264.04 51.73 1265.58 56.34 1267.14 C59.25 1268.12 62.16 1269.09 65.07 1270.06 C66.05 1270.4 67.04 1270.74 68.05 1271.09 C68.94 1271.38 69.82 1271.67 70.72 1271.97 C71.46 1272.22 72.2 1272.47 72.97 1272.73 C75.6 1273.08 76.79 1272.41 79 1271 C80.73 1269.3 80.73 1269.3 82.25 1267.38 C82.77 1266.74 83.29 1266.11 83.83 1265.46 C84.21 1264.98 84.6 1264.5 85 1264 C82.45 1259.37 79.76 1255.18 76.5 1251 C76.07 1250.45 75.64 1249.9 75.2 1249.33 C71.33 1244.38 67.39 1239.48 63.46 1234.58 C56.12 1225.42 49 1216.1 42.06 1206.62 C41.51 1205.88 40.95 1205.13 40.38 1204.35 C32.83 1193.97 32.83 1193.97 33.13 1188.79 C36.43 1182 43.2 1176.86 48.77 1171.98 C50.58 1170.37 52.31 1168.74 54 1167 C52.61 1166.04 52.61 1166.04 51.18 1165.06 C32.6 1152.11 32.6 1152.11 30 1144 C28.91 1130.46 41.23 1117.13 49 1107 C49.98 1105.97 50.95 1104.95 51.93 1103.93 C54.35 1101.15 54.35 1101.15 53.78 1097.73 C53.01 1094.05 51.95 1090.82 50.55 1087.32 C50.03 1086.01 49.52 1084.7 49 1083.38 C48.73 1082.69 48.45 1082 48.17 1081.29 C30.78 1037.38 17.96 992.45 6.61 946.66 C6.14 944.73 5.66 942.8 5.18 940.87 C1.73 926.98 -1.5 913.05 -4.34 899.02 C-4.58 897.82 -4.82 896.62 -5.08 895.39 C-7.07 885.31 -8.33 875.21 -9.36 865 C-10.3 857.02 -12.4 853.03 -18.19 847.62 C-19.37 846.49 -20.54 845.35 -21.71 844.21 C-22.28 843.66 -22.85 843.11 -23.43 842.55 C-30.92 835.16 -30.92 835.16 -33 831 C-32.32 830.26 -31.63 829.53 -30.93 828.77 C-27.64 823.8 -29.35 818.25 -30.19 812.69 C-30.51 810.25 -30.82 807.82 -31.12 805.39 C-31.28 804.15 -31.43 802.92 -31.59 801.65 C-35.17 769.82 -34.25 729.35 -13.26 702.8 C-12.72 702.14 -12.18 701.49 -11.62 700.81 C-8.37 696.3 -8.78 692.15 -8.81 686.81 C-8.75 676.79 -5.4 671.91 1.33 664.81 C4.43 661.45 7.25 657.87 10.12 654.31 C10.69 653.63 11.26 652.94 11.85 652.24 C12.64 651.28 12.64 651.28 13.45 650.3 C14.15 649.45 14.15 649.45 14.87 648.59 C16.2 646.88 16.2 646.88 17 644 C14.39 639.73 11.14 635.89 8 632 C7.38 631.21 6.75 630.41 6.11 629.6 C0.32 622.64 -6.78 617.35 -14 612 C-15.07 611.21 -15.07 611.21 -16.15 610.4 C-24.11 604.53 -32.16 598.81 -40.38 593.31 C-41.29 592.7 -41.29 592.7 -42.23 592.07 C-43.81 591.03 -45.4 590.01 -47 589 C-47.97 588.27 -47.97 588.27 -48.96 587.53 C-52.47 586.62 -55.22 588.62 -58.25 590.25 C-58.95 590.61 -59.65 590.98 -60.37 591.36 C-70.31 596.63 -79.86 602.58 -88.88 609.31 C-98.7 616.65 -107.65 620.24 -120 619 C-123.7 617.82 -126.77 616.14 -130 614 C-130.62 613.6 -131.25 613.2 -131.89 612.79 C-139.46 607.16 -143.83 597.74 -147.56 589.31 C-149.31 585.68 -149.67 585.16 -153.5 583.31 C-157.27 582.81 -157.27 582.81 -162 584 C-162.33 578.72 -162.66 573.44 -163 568 C-164.01 567.92 -165.02 567.84 -166.06 567.75 C-172.85 566.93 -179.43 564.82 -186 563 C-186 556.07 -186 549.14 -186 542 C-187.65 541.34 -189.3 540.68 -191 540 C-192.22 539.33 -193.42 538.63 -194.6 537.9 C-195.25 537.49 -195.9 537.09 -196.57 536.67 C-197.25 536.25 -197.93 535.82 -198.62 535.38 C-199.33 534.93 -200.03 534.49 -200.76 534.03 C-217.49 523.39 -217.49 523.39 -224 516 C-224 515.34 -224 514.68 -224 514 C-223.18 513.62 -222.36 513.24 -221.51 512.86 C-206.4 505.41 -198.26 492.6 -189 479 C-194.26 473.66 -194.26 473.66 -199.81 468.62 C-203.01 465.87 -206.17 463.07 -209.31 460.25 C-210.13 459.51 -210.95 458.78 -211.8 458.02 C-213.58 456.38 -215.3 454.72 -217 453 C-215.12 468.7 -213.13 484.29 -207 499 C-216.97 497.57 -225.89 489.65 -232 482 C-234.96 477.5 -237.51 472.77 -240 468 C-238.3 487.84 -236.17 507.59 -233.63 527.34 C-233.52 528.19 -233.41 529.04 -233.3 529.91 C-233.1 531.49 -232.9 533.08 -232.69 534.66 C-232.08 539.48 -231.91 544.14 -232 549 C-247.46 534.37 -252.15 512.92 -257 493 C-258.48 496.46 -259.48 499.76 -260.22 503.45 C-260.43 504.46 -260.64 505.47 -260.86 506.52 C-261.29 508.64 -261.72 510.77 -262.14 512.89 C-262.35 513.9 -262.56 514.91 -262.78 515.95 C-263.06 517.33 -263.06 517.33 -263.35 518.74 C-264 521 -264 521 -266 523 C-274.03 499.41 -275.2 476.8 -275 452 C-275.55 452.12 -276.11 452.24 -276.68 452.37 C-279.2 452.92 -281.73 453.46 -284.25 454 C-285.56 454.29 -285.56 454.29 -286.89 454.58 C-288.16 454.85 -288.16 454.85 -289.45 455.12 C-290.23 455.29 -291 455.46 -291.8 455.63 C-294 456 -294 456 -298 456 C-296.73 449.92 -295.19 443.97 -293.4 438.03 C-293.16 437.22 -292.92 436.41 -292.67 435.58 C-291.91 433.03 -291.14 430.48 -290.38 427.94 C-289.85 426.2 -289.33 424.45 -288.81 422.71 C-287.54 418.47 -286.27 414.24 -285 410 C-289.45 415.44 -289.45 415.44 -294 421 C-299.35 415.65 -300.78 413.58 -301.22 406.29 C-301.18 401.79 -299.87 398.28 -298.12 394.19 C-294.72 385.62 -292.85 377.98 -293.12 368.69 C-293.25 363.42 -292.49 360.93 -289 357 C-290.6 357.11 -292.21 357.24 -293.81 357.38 C-294.71 357.44 -295.6 357.51 -296.52 357.59 C-299.24 357.87 -299.24 357.87 -302 360 C-301.58 365.15 -300.85 369.69 -299.31 374.62 C-298.37 378.04 -298.01 380.22 -298.19 383.81 C-301.01 388.77 -305.01 390.45 -310 393 C-312.4 394.24 -314.8 395.49 -317.2 396.74 C-318.87 397.61 -320.54 398.46 -322.22 399.31 C-330.85 403.57 -330.85 403.57 -336.34 411.14 C-337.18 416.05 -337.38 420.84 -337.5 425.81 C-337.73 432.94 -338.11 439.98 -339 447.06 C-340.29 457.34 -340.64 467.65 -341 478 C-343 477 -343 477 -344.18 473.63 C-345.58 468.79 -346.82 463.9 -348 459 C-348.17 458.29 -348.34 457.58 -348.52 456.85 C-351.18 445.29 -351.28 433.67 -351.31 421.88 C-351.32 420.73 -351.32 420.73 -351.32 419.55 C-351.38 398.25 -351.38 398.25 -345.47 391.45 C-343.08 389.09 -340.38 387.58 -337.46 385.95 C-336.85 385.6 -336.24 385.26 -335.61 384.91 C-333.68 383.82 -331.75 382.75 -329.81 381.69 C-328.5 380.95 -327.19 380.22 -325.88 379.48 C-317.05 374.52 -317.05 374.52 -314 373 C-316.06 368.51 -318.9 364.49 -321.63 360.4 C-325.6 354.35 -329.09 348.48 -328 341 C-322.26 331.62 -310.8 327.8 -301 324 C-307.82 318.45 -317.23 315.68 -326 316 C-329.02 316.59 -329.02 316.59 -331 319 C-334.69 326.2 -336.07 333.7 -337.25 341.62 C-337.51 343.27 -337.51 343.27 -337.77 344.96 C-338.19 347.64 -338.6 350.32 -339 353 C-346.95 351.65 -354.47 349.39 -362.12 346.88 C-363.27 346.5 -364.42 346.13 -365.6 345.75 C-368.4 344.84 -371.2 343.92 -374 343 C-374.14 343.68 -374.27 344.37 -374.41 345.07 C-379.4 370.19 -379.4 370.19 -382 382 C-382.66 381.67 -383.32 381.34 -384 381 C-384.41 379.22 -384.41 379.22 -384.63 376.86 C-384.72 375.96 -384.8 375.07 -384.89 374.16 C-384.97 373.18 -385.04 372.2 -385.12 371.19 C-385.25 369.67 -385.25 369.67 -385.38 368.12 C-386 359.81 -386.21 351.52 -386.25 343.19 C-386.26 342.03 -386.27 340.87 -386.28 339.67 C-386.25 331.59 -386.12 323.18 -382 316 C-378.11 312.49 -374.06 312.51 -369.05 312.64 C-362.35 313.43 -355.96 315.87 -350 319 C-349.84 318.38 -349.68 317.77 -349.52 317.13 C-347.47 309.7 -344.74 303.39 -339.88 297.38 C-330.88 293.07 -317.93 298.99 -309 302 C-306.32 302.97 -303.66 303.98 -301 305 C-304.94 295.47 -308.95 286.43 -315 278 C-315.69 277.02 -315.69 277.02 -316.39 276.02 C-325.36 264.37 -341.62 258.77 -355.24 254.65 C-356.84 254.15 -358.42 253.58 -360 253 C-360.33 252.34 -360.66 251.68 -361 251 C-346.44 248.34 -327.38 245.64 -313.88 253.18 C-311.78 254.67 -309.91 256.27 -308 258 C-307.03 258.86 -306.06 259.72 -305.07 260.61 C-302.35 263.05 -299.67 265.52 -297 268 C-297.29 267.03 -297.58 266.06 -297.88 265.05 C-302.27 249.17 -303.1 231.11 -299 215 C-298.34 214.34 -297.68 213.68 -297 213 C-295.02 216.63 -293.04 220.26 -291 224 C-290.93 223.07 -290.86 222.14 -290.79 221.18 C-286.56 166.25 -286.56 166.25 -273 144 C-271.25 147.06 -270.68 149.5 -270.42 153.01 C-270.31 154.5 -270.31 154.5 -270.19 156.03 C-270.12 157.09 -270.04 158.16 -269.96 159.26 C-269.84 160.91 -269.84 160.91 -269.71 162.59 C-269.45 166.1 -269.19 169.61 -268.94 173.12 C-268.68 176.64 -268.42 180.16 -268.15 183.68 C-267.99 185.87 -267.83 188.06 -267.67 190.25 C-267.6 191.24 -267.52 192.23 -267.45 193.25 C-267.39 194.12 -267.32 194.99 -267.26 195.89 C-267.11 198.05 -267.11 198.05 -266 200 C-261.71 188.12 -257.42 176.24 -253 164 C-251.27 167.47 -250.75 168.58 -250.62 172.15 C-250.57 173.32 -250.57 173.32 -250.52 174.51 C-250.49 175.31 -250.46 176.11 -250.44 176.94 C-250.2 184.02 -250.2 184.02 -249 191 C-248.47 190.38 -247.93 189.77 -247.38 189.13 C-238.21 178.7 -228.48 170.79 -216.92 163.26 C-190.62 145.99 -175.95 125.96 -166.6 95.91 C-165.77 93.26 -164.89 90.63 -164 88 C-163.67 88 -163.34 88 -163 88 C-162.65 105.99 -162.52 124.68 -168 142 C-167.59 141.44 -167.17 140.89 -166.75 140.31 C-158.91 129.95 -149.28 118.66 -136 116 C-136 122.27 -136 128.54 -136 135 C-133.94 133.37 -131.88 131.74 -129.75 130.06 C-127.8 128.53 -125.84 127 -123.88 125.47 C-122.21 124.17 -120.55 122.86 -118.89 121.55 C-104.95 110.77 -90.55 104.52 -74 99 C-84.89 98.5 -84.89 98.5 -96 98 C-94.91 93.63 -93 90.39 -90.62 86.62 C-89.96 85.56 -89.96 85.56 -89.27 84.48 C-84.64 77.26 -79.48 70.58 -74 64 C-73.51 63.41 -73.02 62.82 -72.52 62.21 C-60.67 47.93 -47.77 34.29 -33 23 C-32 22.21 -31 21.41 -29.97 20.59 C-20.45 13.07 -10.46 6.16 0 0 Z M108 479 C109 481 109 481 109 481 Z " fill="#000000" transform="translate(1417,297)"/>
<path d="M0 0 C3.29 2.49 3.91 3.48 5.06 7.31 C5.39 15.51 3.01 23.76 1.22 31.71 C-2.24 47.15 -4.98 62.6 -6.94 78.31 C-7.04 79.11 -7.14 79.9 -7.25 80.72 C-8.16 88.54 -8.18 96.39 -8.19 104.25 C-8.19 104.98 -8.19 105.71 -8.19 106.46 C-8.15 135.86 -1.45 162.37 19.59 183.89 C48.4 211.4 91.12 220.37 129.04 226.98 C134.36 227.96 138.1 229.24 141.85 233.2 C144.07 237.06 143.64 241 143.06 245.31 C142.12 248.28 140.78 250.72 139.06 253.31 C138.48 254.22 138.48 254.22 137.88 255.15 C130.53 265.09 118.44 267.21 107 268.97 C106.15 269.1 105.29 269.23 104.41 269.36 C99.84 270.03 95.28 270.79 90.72 271.53 C89.81 271.68 88.9 271.83 87.96 271.98 C25.47 282.24 -34.04 305.28 -81.94 347.31 C-82.46 347.77 -82.99 348.24 -83.53 348.71 C-96.46 360.15 -108.28 372.74 -118.94 386.31 C-119.9 387.49 -120.86 388.66 -121.82 389.83 C-140.15 412.45 -155.78 437.6 -170.11 462.91 C-170.64 463.85 -171.18 464.79 -171.73 465.77 C-172.75 467.56 -173.76 469.36 -174.76 471.16 C-180.18 480.81 -186.57 491.25 -197.44 495.25 C-203.01 496.8 -207.72 497.15 -213.25 495.06 C-215.98 493.29 -217.24 492.05 -218.94 489.31 C-220.38 481.3 -218.03 473.05 -216.17 465.29 C-215.33 461.76 -214.54 458.22 -213.75 454.68 C-213.6 453.97 -213.44 453.26 -213.27 452.53 C-204.69 413.55 -198.16 363.66 -220.19 327.69 C-244.19 292.13 -286.08 278.64 -326.44 270.62 C-331.08 269.73 -335.73 268.86 -340.39 268.05 C-353.08 265.77 -353.08 265.77 -356.88 260.75 C-358.55 255.34 -358.26 250.37 -355.99 245.14 C-351.05 236.71 -345.01 231.71 -335.94 228.31 C-332.66 227.47 -329.36 226.93 -326.02 226.42 C-324.1 226.1 -322.18 225.79 -320.26 225.47 C-319.27 225.31 -318.28 225.16 -317.26 224.99 C-298.23 221.94 -279.54 218.35 -260.94 213.31 C-259.92 213.04 -258.9 212.77 -257.85 212.49 C-215.08 201.01 -175.09 182.71 -140.94 154.31 C-140.44 153.9 -139.94 153.49 -139.43 153.07 C-126.14 142.16 -113.44 130.25 -102.82 116.69 C-101.05 114.46 -99.19 112.39 -97.25 110.31 C-76.26 86.78 -59.24 58.05 -43.76 30.71 C-42.96 29.29 -42.96 29.29 -42.14 27.85 C-41.13 26.06 -40.12 24.26 -39.12 22.46 C-31.62 9.11 -17.4 -8.81 0 0 Z " fill="#000000" transform="translate(2155.9375,192.6875)"/>
<path d="M0 0 C1.62 6.81 0.11 12.69 -1.38 19.44 C-5.91 40.6 -9.29 64.46 2.25 84 C14.57 101.48 36.69 107.4 56.75 111.06 C57.61 111.2 58.47 111.34 59.35 111.48 C63.06 112.13 65.49 112.63 68.58 114.88 C70.45 117.67 70.21 119.8 69.61 123.04 C68.36 127.07 66.15 129.27 62.65 131.49 C57.35 133.68 51.95 134.43 46.31 135.38 C-1.96 143.92 -40.49 163.5 -69.56 204.01 C-75.7 212.8 -81.12 222 -86.46 231.28 C-86.86 231.96 -87.26 232.64 -87.67 233.34 C-88.4 234.6 -89.12 235.87 -89.83 237.14 C-92.62 241.95 -95.92 245.74 -101.16 247.88 C-104.85 248.35 -106.85 248.08 -110.12 246.31 C-112.3 242.47 -112.06 241.67 -111.25 237.49 C-110.95 235.89 -110.95 235.89 -110.65 234.25 C-110.43 233.18 -110.22 232.1 -110 231 C-107.59 218.56 -105.62 206.46 -105.56 193.75 C-105.55 192.25 -105.55 192.25 -105.53 190.73 C-105.69 176.74 -109.75 163.72 -119.94 153.75 C-134.1 142.2 -152.68 137.37 -170.35 134.52 C-174.09 133.86 -176.49 133.38 -179.58 131.09 C-181 129 -181 129 -180.94 125.56 C-179.55 120.3 -178.53 117.94 -173.8 115.04 C-168.26 112.37 -162.36 111.51 -156.35 110.48 C-123.94 104.86 -94.09 94.98 -69 73 C-67.8 71.98 -67.8 71.98 -66.57 70.94 C-46.7 53.8 -31.91 29.66 -19.75 6.68 C-17.21 2.78 -14.29 0.62 -10.12 -1.38 C-6.21 -2.16 -3.71 -1.34 0 0 Z " fill="#000000" transform="translate(2263,633)"/>
</svg>
