<?xml version="1.0" standalone="no"?>
<!DOCTYPE svg PUBLIC "-//W3C//DTD SVG 20010904//EN"
 "http://www.w3.org/TR/2001/REC-SVG-20010904/DTD/svg10.dtd">
<svg version="1.0" xmlns="http://www.w3.org/2000/svg"
 width="8000.000000pt" height="2727.000000pt" viewBox="0 0 8000.000000 2727.000000"
 preserveAspectRatio="xMidYMid meet">
<metadata>
Created by potrace 1.16, written by Peter Selinger 2001-2019
</metadata>
<g transform="translate(0.000000,2727.000000) scale(0.100000,-0.100000)"
fill="#000000" stroke="none">
<path d="M43340 27263 c-30 -1 -147 -7 -260 -13 -2701 -139 -5561 -981 -8150
-2398 -2492 -1364 -4724 -3239 -6594 -5540 -32 -40 -57 -75 -54 -77 3 -3 114
83 249 191 4237 3407 8649 5433 12539 5758 656 55 1402 55 1995 0 2178 -201
3851 -1053 4797 -2444 473 -694 741 -1493 819 -2435 15 -181 13 -726 -3 -922
l-13 -153 2256 0 2256 0 17 143 c28 245 35 334 48 624 22 523 -18 1054 -118
1563 -151 763 -450 1491 -879 2140 -771 1166 -1983 2104 -3515 2719 -1219 491
-2561 767 -4085 841 -182 9 -1153 11 -1305 3z"/>
<path d="M37795 22582 c-163 -110 -297 -228 -413 -365 -70 -82 -192 -253 -192
-269 0 -4 42 -8 93 -9 l92 0 -80 -28 c-110 -38 -167 -69 -265 -143 -45 -34
-91 -69 -102 -77 -17 -13 -18 -10 -18 53 0 48 -4 66 -13 66 -25 0 -106 -61
-163 -123 -40 -43 -54 -54 -49 -36 5 13 12 40 16 59 10 41 24 307 16 300 -2
-3 -19 -47 -36 -99 -70 -208 -142 -299 -348 -438 -65 -45 -144 -108 -175 -141
l-58 -61 -1 72 c-3 147 -9 147 -65 -7 l-51 -140 -13 175 c-7 96 -16 190 -20
209 l-7 35 -31 -66 c-53 -113 -91 -302 -92 -459 l-1 -55 -26 50 -26 50 -10
-30 c-5 -16 -10 -88 -10 -160 -1 -99 3 -140 16 -173 l16 -42 -68 59 c-85 73
-131 86 -272 78 -54 -3 -103 -8 -110 -12 -7 -5 26 -22 81 -41 157 -56 223
-112 290 -244 15 -30 30 -65 34 -76 l7 -22 -64 23 c-34 13 -91 29 -125 35 -60
12 -64 12 -87 -10 -14 -13 -35 -50 -47 -82 -17 -42 -27 -58 -38 -54 -97 32
-133 39 -168 30 -60 -15 -67 -40 -67 -239 1 -176 11 -268 25 -230 4 11 18 73
31 138 13 64 28 117 34 117 5 0 60 -16 120 -35 61 -19 113 -35 116 -35 3 0 9
33 12 73 7 80 28 151 55 180 21 23 70 19 157 -14 l58 -21 -84 -44 c-91 -47
-119 -73 -119 -110 0 -29 37 -104 78 -158 l29 -40 -116 -66 c-151 -86 -151
-86 -151 -283 0 -148 22 -302 52 -374 13 -31 17 -2 36 304 6 100 13 149 25
166 8 13 53 43 99 67 144 75 158 86 158 124 0 18 -7 53 -15 76 -8 23 -15 50
-15 60 0 19 39 40 76 40 24 0 24 -1 10 -22 -10 -14 -16 -44 -16 -83 0 -42 -9
-87 -32 -151 -29 -82 -31 -95 -20 -130 6 -22 18 -48 26 -59 15 -20 15 -20 29
0 29 41 57 70 52 55 -2 -8 -25 -82 -50 -164 -25 -82 -44 -150 -43 -152 2 -1
32 4 68 11 106 23 97 36 103 -142 5 -151 32 -312 56 -336 8 -8 51 153 51 189
0 8 3 14 8 14 4 0 18 -41 31 -91 25 -96 81 -220 125 -278 l26 -35 0 30 c0 17
-11 120 -24 230 -14 109 -27 228 -31 264 l-6 65 27 -45 c47 -79 161 -180 202
-180 6 0 2 21 -8 48 -16 42 -36 134 -55 246 l-6 39 91 -84 c50 -46 98 -88 106
-92 12 -7 9 -16 -17 -53 -64 -94 -131 -165 -175 -187 -24 -11 -44 -27 -44 -33
0 -18 70 -72 177 -139 l93 -57 -6 -68 -7 -68 39 -11 c22 -5 60 -15 87 -22 47
-11 47 -12 47 -53 0 -47 12 -72 29 -61 30 18 61 -6 96 -75 66 -131 140 -186
239 -178 56 5 106 30 230 117 38 27 98 63 132 81 54 28 65 30 86 19 42 -22
262 -180 319 -230 57 -50 139 -147 139 -166 0 -6 -38 -58 -84 -116 l-85 -104
-7 -74 c-4 -44 -14 -84 -24 -99 -36 -52 -91 -172 -117 -257 -25 -82 -27 -101
-27 -278 0 -104 5 -225 12 -268 10 -68 10 -81 -4 -103 -16 -24 -16 -25 64
-113 l81 -88 16 -124 c20 -155 47 -277 135 -628 78 -310 140 -509 242 -783
l70 -188 -35 -42 c-52 -64 -123 -178 -136 -220 -10 -30 -9 -42 3 -65 17 -34
87 -101 133 -128 l32 -19 -74 -69 c-58 -53 -75 -75 -75 -96 0 -29 57 -118 152
-237 149 -187 208 -267 208 -279 0 -8 -12 -29 -28 -46 l-27 -30 -429 140 -429
140 -116 -68 -116 -69 -484 129 c-266 71 -488 129 -495 129 -6 0 -76 -40 -154
-89 l-142 -88 -63 32 c-34 18 -105 50 -157 70 -79 32 -108 38 -172 39 -71 1
-79 -1 -115 -30 -24 -19 -53 -60 -78 -109 l-40 -77 2 -117 c1 -64 8 -141 15
-171 l14 -55 -81 -54 c-169 -113 -170 -116 -170 -481 1 -441 50 -747 153 -943
46 -89 153 -197 357 -363 87 -71 215 -183 284 -250 l124 -120 -57 -32 c-76
-43 -135 -99 -157 -147 -23 -50 -25 -190 -4 -289 l15 -70 -85 -162 c-248 -475
-416 -743 -698 -1117 -191 -254 -640 -700 -907 -902 -108 -81 -325 -251 -502
-392 l-168 -134 -55 46 c-125 101 -210 122 -360 86 -122 -29 -242 -89 -304
-151 -47 -47 -141 -211 -141 -246 0 -8 -6 -14 -12 -14 -7 -1 -39 -7 -70 -14
l-58 -14 -91 56 c-127 79 -184 137 -262 269 -80 135 -236 422 -302 553 -26 52
-56 105 -68 117 -50 55 -233 91 -372 73 -301 -38 -478 -192 -551 -477 -34
-134 -48 -321 -35 -471 20 -229 120 -469 251 -601 82 -84 132 -110 295 -156
146 -41 268 -96 335 -151 89 -74 130 -135 235 -349 127 -257 185 -346 290
-451 131 -131 262 -180 414 -157 141 22 250 93 378 245 119 141 190 216 277
294 l79 72 59 -5 c53 -5 65 -2 136 32 175 87 269 246 301 513 13 101 28 122
205 285 328 300 579 476 1116 777 465 262 591 348 771 529 197 199 348 453
554 931 112 260 136 308 172 334 59 44 23 63 828 -432 57 -35 103 -72 125
-101 20 -25 138 -182 264 -347 l227 -302 -72 -108 c-140 -212 -184 -340 -161
-464 25 -135 110 -268 271 -422 109 -105 170 -141 228 -136 35 3 40 0 55 -32
40 -79 15 -220 -79 -450 -87 -212 -94 -236 -102 -355 -10 -131 -27 -171 -108
-256 -65 -68 -149 -126 -298 -205 -289 -152 -441 -301 -527 -519 -29 -73 -32
-89 -32 -185 1 -120 28 -228 93 -365 32 -67 60 -103 176 -227 75 -82 145 -149
154 -149 224 -19 726 208 1119 504 163 123 565 483 613 550 40 55 66 130 84
244 26 161 41 177 355 386 228 151 322 227 416 340 156 185 299 441 330 588
35 169 -20 358 -158 544 -68 92 -347 369 -523 520 -188 162 -205 179 -205 207
0 25 -134 238 -230 365 -73 98 -166 189 -217 214 -55 27 -144 35 -214 20 l-54
-12 -48 53 c-26 29 -79 91 -116 137 l-69 85 15 50 c29 99 105 241 229 428 211
319 447 707 530 870 43 85 93 153 243 328 78 91 165 197 194 236 41 56 67 79
127 115 327 191 633 431 735 574 149 210 235 535 251 956 l7 166 45 34 c25 19
50 41 55 50 7 12 5 57 -7 147 l-18 130 27 68 c31 77 41 130 31 168 -7 27 -42
50 -106 70 l-37 11 45 145 c24 80 46 173 49 207 5 54 2 67 -20 106 -14 24 -43
57 -64 72 -21 16 -40 30 -42 31 -2 2 6 16 18 32 12 17 21 35 21 40 0 14 -107
147 -153 191 l-36 34 135 144 c152 164 152 165 110 275 -39 106 -81 181 -269
483 -99 160 -186 306 -194 325 -22 52 -13 739 11 900 19 123 80 378 93 391 5
5 67 4 138 -1 195 -14 440 -12 608 6 249 26 348 -6 412 -130 l30 -59 6 -281
c7 -309 12 -344 73 -463 49 -97 120 -194 219 -300 79 -84 92 -104 170 -265
245 -500 339 -871 324 -1282 -3 -89 -11 -199 -18 -246 -11 -83 -11 -86 16
-149 31 -74 85 -162 124 -204 56 -61 164 -97 294 -98 86 0 134 -15 159 -50 19
-25 19 -26 -8 -123 -21 -72 -25 -102 -18 -114 6 -9 62 -59 125 -109 l114 -93
103 0 c114 0 120 3 162 77 21 38 24 40 51 30 26 -10 32 -8 65 23 20 19 57 65
83 102 43 61 48 65 59 47 7 -10 21 -19 32 -19 38 0 126 149 141 242 6 36 22
80 37 103 23 34 26 50 25 109 -5 167 -86 313 -207 370 -29 14 -115 41 -193 60
-246 62 -449 147 -521 217 -55 54 -53 44 -211 1009 -100 612 -222 1225 -342
1720 -76 316 -108 417 -137 440 -28 22 -90 26 -139 10 -26 -10 -39 -6 -114 34
-166 88 -372 142 -752 196 l-212 31 -87 50 c-254 146 -561 266 -778 304 -161
28 -219 46 -324 99 -114 58 -211 119 -330 208 -124 92 -194 120 -248 99 -21
-8 -37 -1 -109 46 -107 70 -172 103 -203 103 -23 0 -97 -49 -206 -138 -30 -25
-78 -56 -106 -68 -43 -21 -54 -22 -82 -12 -26 10 -34 9 -51 -6 -18 -17 -21
-17 -60 3 -22 12 -46 21 -54 21 -18 0 -69 -56 -102 -112 -33 -59 -33 -58 -142
55 -101 105 -143 175 -142 237 l0 45 32 -85 32 -85 6 115 c3 63 6 107 7 97 7
-62 122 -247 153 -247 5 0 9 20 9 44 0 104 37 201 88 233 18 10 22 2 63 -115
l44 -126 3 187 2 187 72 -50 c104 -73 237 -107 326 -84 29 8 28 16 -5 31 -54
24 -154 115 -203 185 -42 59 -97 175 -88 183 2 1 84 -24 183 -55 99 -31 182
-55 184 -53 3 2 -40 49 -95 104 -90 92 -95 99 -57 80 23 -12 45 -21 48 -21 6
0 1 22 -12 57 -4 9 17 13 70 15 l76 3 -80 87 -80 87 73 22 c40 13 77 26 81 29
4 4 -34 33 -85 65 -51 32 -124 81 -162 108 -80 59 -80 60 47 102 102 33 168
41 237 26 29 -6 55 -9 58 -6 9 9 -64 119 -114 171 -28 29 -63 56 -78 60 -34 8
-25 21 38 50 70 32 157 33 186 2 31 -34 43 -93 38 -196 l-5 -93 30 38 c95 119
205 187 415 259 67 23 126 45 130 49 4 4 -2 5 -13 2 -63 -18 -299 -58 -354
-60 -91 -3 -97 16 -55 161 6 21 3 22 -44 22 -59 0 -102 14 -102 33 0 15 70 62
117 79 45 16 41 28 -9 28 -74 0 -168 21 -195 44 -23 20 -25 26 -18 74 8 57 17
66 82 80 l38 9 -40 11 c-64 19 -107 15 -145 -13 -19 -14 -41 -25 -51 -25 -19
0 -59 38 -102 98 -34 47 -134 119 -218 156 l-53 23 91 -1 90 -1 114 76 c63 42
125 79 137 83 17 6 32 -3 74 -47 92 -95 159 -98 260 -11 59 50 101 62 173 47
27 -6 52 -9 55 -6 3 3 -15 23 -40 44 -65 57 -102 64 -229 46 -58 -9 -109 -14
-113 -11 -15 10 -8 44 18 85 14 23 23 43 21 46 -9 8 -88 -18 -196 -65 -96 -42
-113 -46 -186 -47 -69 0 -88 4 -140 29 l-60 30 80 6 c88 7 148 31 203 83 35
34 41 69 21 126 -14 39 -2 68 39 95 l27 17 -40 -6 c-56 -9 -129 -42 -155 -70
-19 -20 -20 -27 -10 -64 11 -40 6 -80 -10 -91 -5 -3 -66 -2 -136 1 -127 5
-130 6 -206 46 -42 23 -103 47 -135 53 -32 7 -68 15 -81 19 -16 4 44 23 195
60 120 29 222 57 226 61 4 3 -58 24 -138 45 -80 22 -145 42 -145 46 0 3 27 19
61 34 33 15 58 29 56 31 -3 3 -69 12 -148 20 -79 8 -144 16 -145 17 -1 1 29
38 67 82 37 44 69 84 69 89 1 34 -305 -85 -457 -179 -24 -14 -43 -24 -43 -21
0 3 40 51 90 108 106 123 101 129 -52 69 -223 -88 -467 -226 -581 -331 l-58
-53 21 54 c30 76 62 128 116 188 25 28 45 54 42 56 -2 3 -19 1 -36 -4 -18 -5
-32 -8 -32 -6 0 2 35 66 79 142 43 76 77 140 75 142 -5 5 -39 -20 -184 -132
l-101 -79 80 161 c45 88 81 163 81 166 0 11 -18 2 -85 -43z"/>
<path d="M43015 22182 c-55 -27 -81 -58 -160 -197 -194 -338 -410 -611 -620
-784 -274 -226 -635 -371 -1123 -450 -75 -12 -138 -29 -161 -42 -72 -40 -114
-144 -78 -193 9 -12 55 -26 152 -46 202 -41 305 -74 433 -136 187 -91 293
-214 344 -401 41 -153 25 -438 -42 -721 -11 -46 -20 -97 -20 -113 0 -72 97
-94 181 -41 35 23 56 50 103 133 467 824 877 1124 1745 1279 124 22 172 35
201 54 40 26 80 95 80 138 0 52 -24 65 -185 97 -489 98 -714 269 -770 586 -27
157 -14 348 41 610 38 181 39 187 17 213 -26 32 -86 38 -138 14z"/>
<path d="M3669 18373 c-6 -16 -832 -2145 -1836 -4733 -1004 -2588 -1828 -4715
-1831 -4727 l-4 -23 2135 0 2135 0 17 43 c9 23 773 1991 1697 4372 924 2382
1695 4359 1714 4395 89 169 258 312 585 494 214 119 321 157 549 194 34 6
-961 10 -2548 11 l-2602 1 -11 -27z"/>
<path d="M14460 18390 c14 -4 43 -8 66 -9 68 -2 194 -40 285 -87 164 -85 306
-246 420 -479 60 -123 176 -508 1265 -4195 86 -294 159 -537 161 -540 2 -2 8
2 12 9 5 7 473 1201 1041 2652 657 1679 1038 2639 1047 2639 7 0 13 5 13 10 0
7 -729 10 -2167 9 -1193 -1 -2157 -5 -2143 -9z"/>
<path d="M24012 18389 c-250 -32 -556 -185 -892 -445 -159 -122 -455 -420
-562 -564 -93 -125 -172 -256 -212 -353 -14 -34 -606 -1547 -1316 -3362 -710
-1815 -1315 -3349 -1345 -3410 -226 -463 -686 -916 -1175 -1159 -224 -111
-407 -166 -623 -186 -55 -6 -102 -12 -105 -15 -3 -3 1233 -5 2745 -5 l2751 0
-14 -59 c-22 -96 -82 -434 -103 -586 -102 -719 -112 -1407 -31 -2055 144
-1141 582 -2183 1286 -3061 151 -188 327 -381 540 -589 1073 -1051 2588 -1812
4419 -2219 618 -137 1310 -236 2000 -285 442 -32 713 -39 1315 -33 577 5 712
10 1135 42 3178 240 6472 1324 9450 3110 2297 1377 4344 3120 6126 5215 236
277 432 520 426 526 -3 3 -52 -35 -109 -83 -1232 -1057 -2713 -2150 -4063
-2998 -4373 -2749 -8792 -4002 -12405 -3519 -345 46 -729 119 -1055 200 -2036
507 -3546 1621 -4310 3179 -298 609 -462 1189 -540 1920 -32 290 -30 1058 2
1267 l6 38 -2030 2 -2030 3 426 1092 426 1093 2542 0 2542 0 67 173 c38 94
276 703 530 1352 l461 1180 -2535 3 c-2020 2 -2533 5 -2529 15 3 6 128 327
278 712 200 514 284 718 317 770 51 80 218 251 310 319 35 25 87 53 115 61 45
13 483 15 3781 15 l3731 0 522 1338 c288 735 526 1345 529 1355 6 16 -253 17
-5362 16 -2953 -1 -5397 -5 -5432 -10z"/>
<path d="M47888 18390 c-155 -19 -311 -81 -558 -223 -249 -143 -400 -268 -490
-405 -27 -41 -69 -124 -93 -186 -149 -371 -3381 -8645 -3385 -8663 l-4 -23
2115 0 2115 0 25 63 c14 34 377 960 807 2057 762 1942 783 1999 816 2150 155
724 93 1137 -213 1401 -176 153 -457 262 -882 343 -142 27 -173 43 -186 93
-15 60 50 168 126 212 38 21 82 33 187 50 492 81 822 177 1137 331 264 129
469 276 680 487 214 215 403 468 617 825 196 329 196 329 258 366 72 43 143
45 190 5 40 -33 39 -43 -18 -318 -83 -400 -94 -701 -37 -929 105 -410 445
-636 1157 -767 141 -26 168 -43 168 -111 0 -29 -10 -60 -30 -95 -50 -87 -109
-118 -274 -144 -365 -58 -694 -142 -946 -241 -104 -41 -270 -120 -270 -128 0
-24 1818 -5101 1850 -5165 109 -223 335 -384 649 -462 60 -15 232 -17 1856
-20 1816 -4 1932 -2 2104 33 206 42 489 168 711 316 380 254 723 633 904 1001
44 89 3196 8128 3196 8151 0 3 -929 6 -2065 6 -1955 0 -2066 -1 -2082 -18 -10
-9 -481 -1201 -1048 -2649 -566 -1447 -1031 -2631 -1032 -2630 -1 1 -305 1029
-677 2284 -372 1255 -685 2304 -696 2332 -57 146 -159 313 -255 419 -102 112
-246 198 -400 238 -67 18 -193 18 -3015 20 -1620 1 -2975 -2 -3012 -6z"/>
<path d="M67531 18389 c-331 -39 -709 -263 -1091 -648 -244 -246 -398 -449
-505 -666 -47 -95 -3185 -8150 -3185 -8176 0 -5 715 -9 1899 -9 l1899 0 73
198 c40 108 93 253 119 322 l46 125 203 5 203 5 45 120 c24 66 71 197 104 290
114 320 258 582 502 915 380 516 917 895 1624 1146 348 123 845 224 1193 241
69 3 131 9 138 13 8 4 -37 10 -100 13 -62 4 -180 18 -263 31 -743 124 -1270
416 -1469 813 -53 106 -82 218 -101 393 -40 355 5 588 238 1220 l95 255 -199
3 c-110 1 -199 4 -199 7 0 6 229 628 233 632 2 1 1450 2 3218 1 l3215 -3 -112
-315 -111 -315 -203 -5 -203 -5 -97 -270 c-234 -652 -355 -873 -697 -1271
-183 -213 -332 -344 -568 -500 -491 -323 -1200 -564 -1928 -654 -88 -11 -193
-20 -231 -20 -111 -1 -57 -16 79 -24 462 -24 950 -168 1259 -373 114 -75 299
-253 359 -345 84 -128 139 -262 174 -420 14 -67 18 -124 17 -293 -2 -392 -26
-507 -212 -1020 -44 -121 -82 -230 -86 -242 l-7 -23 199 -2 200 -3 -109 -305
c-60 -168 -111 -313 -115 -322 -5 -17 90 -18 1898 -18 l1903 0 1528 3933 c840
2162 1538 3964 1551 4002 49 146 62 454 27 632 -90 457 -365 767 -811 913
l-92 30 -5736 -1 c-3156 -1 -5770 -5 -5811 -10z m742 -841 c8 -12 4 -49 -13
-135 -31 -151 -34 -339 -7 -425 47 -152 179 -242 446 -302 63 -14 118 -31 122
-38 12 -19 1 -49 -30 -80 -22 -24 -44 -31 -141 -48 -512 -91 -756 -263 -1037
-731 -60 -100 -84 -132 -110 -144 -36 -17 -68 -13 -77 10 -3 8 3 57 14 109 72
345 31 536 -139 645 -63 41 -184 85 -291 105 -114 23 -130 30 -130 62 0 30 46
81 81 88 13 3 83 16 154 30 466 90 721 280 988 736 55 94 77 122 107 133 25 9
52 3 63 -15z"/>
<path d="M9612 12250 c-723 -1843 -1312 -3353 -1310 -3356 3 -2 1357 -3 3009
-2 1652 2 2982 6 2954 11 -151 23 -229 42 -310 74 -230 91 -388 226 -478 408
-19 39 -527 1449 -1127 3135 -601 1686 -1094 3067 -1097 3070 -2 2 -77 6 -166
8 l-162 4 -1313 -3352z"/>
</g>
</svg>
